<?xml version="1.0" encoding="UTF-8"?>
<svg width="512px" height="512px" viewBox="0 0 512 512" version="1.1" xmlns="http://www.w3.org/2000/svg" xmlns:xlink="http://www.w3.org/1999/xlink">
    <title>icon-square</title>
    <defs>
        <polygon id="path-1" points="0.347260734 0.258 73.4131711 0.258 73.4131711 73.3248461 0.347260734 73.3248461"></polygon>
    </defs>
    <g id="icon-square" stroke="none" stroke-width="1" fill="none" fill-rule="evenodd">
        <g id="Group" transform="translate(71.043000, 29.000000)">
            <path d="M184.835,448.639 C206.75,448.639 224.519,449.653 224.519,450.903 C224.519,452.151 206.75,453.163 184.835,453.163 C162.918,453.163 145.149,452.151 145.149,450.903 C145.149,449.653 162.918,448.639 184.835,448.639" id="Fill-1" fill="#1B1038"></path>
            <path d="M311.037,89.714 C278.74,57.419 234.121,37.443 184.838,37.443 C135.556,37.443 90.937,57.419 58.641,89.714 C26.345,122.011 6.368,166.631 6.368,215.912 C6.368,265.195 26.345,309.815 58.641,342.108 C90.937,374.405 135.556,394.382 184.838,394.382 C234.121,394.382 278.74,374.405 311.037,342.108 C343.33,309.815 363.308,265.195 363.308,215.912 C363.308,166.628 343.33,122.009 311.037,89.714 Z M184.838,31.072 C235.88,31.072 282.094,51.762 315.542,85.21 C348.986,118.658 369.677,164.869 369.677,215.912 C369.677,266.954 348.986,313.167 315.542,346.614 C282.091,380.061 235.88,400.753 184.838,400.753 C133.796,400.753 87.584,380.061 54.137,346.614 C20.689,313.167 -1.70530257e-13,266.954 -1.70530257e-13,215.912 C-1.70530257e-13,164.871 20.689,118.659 54.137,85.21 C87.584,51.762 133.796,31.072 184.838,31.072 L184.838,31.072 Z" id="Fill-2" fill="#1B1038"></path>
            <path d="M101.32,225.792 C102.898,226.862 103.312,229.01 102.242,230.589 C101.172,232.168 99.023,232.581 97.444,231.511 C91.86,227.714 88.082,226.981 85.773,228.083 C83.781,229.035 82.652,231.613 82.3,234.796 C81.889,238.546 82.595,242.955 84.265,246.824 C85.064,248.678 86.088,250.392 87.312,251.808 L81.64,255.863 C80.138,254 78.884,251.857 77.895,249.564 C75.773,244.647 74.882,238.979 75.412,234.082 C73.831,232.774 72.476,231.407 71.334,229.998 C67.969,225.841 66.423,221.317 66.448,216.816 C66.47,212.338 68.053,207.962 70.941,204.06 C73.526,200.567 77.173,197.445 81.683,194.979 C54.862,157.062 62.827,128.712 87.696,110.038 C110.439,92.961 147.695,84.422 184.838,84.422 C221.983,84.422 259.238,92.961 281.98,110.037 C306.849,128.71 314.815,157.061 287.995,194.979 C292.503,197.443 296.149,200.567 298.733,204.06 C301.623,207.962 303.206,212.338 303.23,216.816 C303.253,221.317 301.708,225.841 298.341,229.998 C297.2,231.407 295.845,232.774 294.265,234.082 C294.795,238.977 293.904,244.647 291.782,249.564 C290.881,251.654 289.76,253.619 288.43,255.362 L282.863,251.203 C283.869,249.914 284.722,248.422 285.411,246.824 C287.082,242.955 287.789,238.546 287.374,234.796 C287.023,231.613 285.896,229.035 283.904,228.083 C281.594,226.983 277.816,227.714 272.233,231.511 C270.653,232.581 268.504,232.168 267.433,230.589 C266.365,229.01 266.777,226.862 268.355,225.792 C276.308,220.385 282.464,219.713 286.885,221.821 C289.101,222.881 290.804,224.586 292.027,226.719 C292.362,226.361 292.679,225.998 292.974,225.633 C295.275,222.791 296.334,219.779 296.317,216.843 C296.302,213.883 295.195,210.908 293.177,208.18 C290.608,204.709 286.585,201.659 281.429,199.499 L277.324,197.78 L279.99,194.228 C306.746,158.597 300.269,132.412 277.833,115.566 C256.342,99.429 220.646,91.36 184.838,91.36 C149.031,91.36 113.332,99.431 91.844,115.568 C69.407,132.414 62.931,158.598 89.684,194.228 L92.353,197.78 L88.248,199.499 C83.091,201.659 79.069,204.709 76.499,208.18 C74.481,210.908 73.375,213.883 73.359,216.843 C73.343,219.78 74.399,222.791 76.7,225.633 C76.996,225.997 77.312,226.362 77.648,226.719 C78.869,224.587 80.573,222.881 82.792,221.821 C87.212,219.713 93.368,220.385 101.32,225.792" id="Fill-3" fill="#1B1038"></path>
            <path d="M164.026,418.018 C150.521,408.819 139.674,389.458 137.478,360.024 L137.199,356.3 L230.349,356.3 L230.069,360.024 C227.874,389.458 217.026,408.819 203.522,418.018 C197.316,422.247 190.553,424.358 183.773,424.358 C176.995,424.358 170.232,422.247 164.026,418.018 Z M144.721,363.237 C147.312,388.233 156.572,404.563 167.929,412.3 C172.942,415.714 178.367,417.421 183.773,417.421 C189.182,417.421 194.608,415.714 199.62,412.3 C210.976,404.563 220.237,388.233 222.827,363.237 L144.721,363.237 L144.721,363.237 Z" id="Fill-4" fill="#1B1038"></path>
            <path d="M183.773,363.237 L132.634,363.237 C130.753,363.237 129.223,361.739 129.165,359.874 C128.32,351.487 128.432,342.967 129.407,334.475 C130.406,325.779 132.32,317.071 135.045,308.532 L140.444,310.185 L152.058,312.427 C147.314,312.481 143.469,312.546 141.018,312.625 C138.767,320.07 137.167,327.659 136.291,335.258 C135.481,342.315 135.298,349.362 135.803,356.3 L231.747,356.3 C232.249,349.362 232.067,342.315 231.257,335.258 C230.38,327.659 228.783,320.07 226.532,312.625 L232.917,309.856 C235.425,317.971 237.193,326.226 238.141,334.475 C239.126,343.05 239.233,351.655 238.359,360.122 C238.173,361.901 236.669,363.231 234.915,363.229 L234.915,363.237 L183.773,363.237" id="Fill-5" fill="#1B1038"></path>
            <path d="M249.374,383.051 C247.755,377.86 247.501,371.466 249.308,363.846 C245.3,346.323 242.226,328.837 245.015,320.852 C248.755,310.15 258.859,311.635 280.662,337.716 C286.703,344.94 290.71,352.475 292.957,359.675 C295.246,367.01 295.716,374.02 294.645,380.03 C293.521,386.333 290.708,391.594 286.511,395.104 C284.542,396.751 282.28,398.003 279.755,398.792 C275.488,400.122 270.753,400.253 266.286,399.122 C262.605,398.188 259.076,396.393 256.107,393.71 C253.137,391.026 250.757,387.481 249.374,383.051 Z M256.228,364.717 C254.544,371.368 254.67,376.766 255.989,380.991 C256.986,384.184 258.667,386.71 260.742,388.587 C262.82,390.464 265.324,391.729 267.966,392.397 C271.212,393.219 274.631,393.133 277.698,392.176 C279.332,391.669 280.793,390.856 282.068,389.79 C284.994,387.344 286.98,383.522 287.815,378.837 C288.701,373.858 288.289,367.969 286.343,361.733 C284.355,355.36 280.77,348.645 275.349,342.161 C259.365,323.042 252.916,319.211 251.548,323.131 C249.271,329.649 252.378,346.319 256.242,363.106 L256.43,363.923 L256.228,364.717 L256.228,364.717 Z" id="Fill-6" fill="#1B1038"></path>
            <path d="M286.741,350.54 C293.727,351.632 298.506,358.184 297.412,365.171 C296.317,372.157 289.766,376.932 282.78,375.842 C275.794,374.747 271.017,368.196 272.109,361.21 C273.205,354.223 279.755,349.448 286.741,350.54" id="Fill-7" fill="#6DE1FF"></path>
            <path d="M292.314,357.678 C290.908,355.749 288.759,354.354 286.211,353.956 C283.657,353.555 281.182,354.227 279.249,355.637 C277.322,357.044 275.923,359.192 275.526,361.739 C275.126,364.294 275.8,366.768 277.207,368.702 C278.61,370.624 280.744,372.012 283.275,372.419 L283.31,372.425 C285.867,372.825 288.341,372.151 290.273,370.745 C292.194,369.344 293.585,367.21 293.992,364.68 L293.996,364.641 C294.395,362.085 293.724,359.612 292.314,357.678 Z M287.271,347.124 C291.706,347.817 295.446,350.249 297.897,353.612 C300.281,356.878 301.452,361.028 300.88,365.325 L300.826,365.7 C300.133,370.135 297.703,373.874 294.339,376.327 C291.073,378.712 286.923,379.882 282.63,379.311 L282.253,379.255 C277.816,378.563 274.078,376.133 271.624,372.77 C269.172,369.405 268.001,365.112 268.696,360.68 C269.39,356.245 271.818,352.508 275.181,350.053 C278.545,347.602 282.839,346.432 287.271,347.124 L287.271,347.124 Z" id="Fill-8" fill="#1B1038"></path>
            <path d="M114.683,363.876 C121.269,389.903 102.283,399.686 88.823,395.485 C73.048,390.561 69.738,363.624 89.544,339.936 C127.334,294.741 122.639,329.301 114.683,363.876" id="Fill-9" fill="#D1D4E3"></path>
            <path d="M111.561,380.991 C112.877,376.766 113.005,371.368 111.321,364.717 L111.121,363.923 L111.309,363.106 C115.17,346.319 118.279,329.649 116.001,323.131 C114.633,319.214 108.184,323.042 92.2,342.161 C86.779,348.645 83.197,355.36 81.206,361.733 C79.261,367.969 78.849,373.858 79.734,378.837 C80.57,383.522 82.558,387.344 85.481,389.79 C86.756,390.856 88.22,391.669 89.853,392.176 C92.916,393.133 96.337,393.219 99.583,392.397 C102.225,391.729 104.732,390.464 106.807,388.587 C108.883,386.71 110.563,384.184 111.561,380.991 Z M118.242,363.846 C120.046,371.466 119.794,377.86 118.174,383.051 C116.791,387.481 114.411,391.026 111.443,393.71 C108.474,396.393 104.947,398.188 101.264,399.122 C96.796,400.253 92.061,400.122 87.793,398.792 C85.27,398.003 83.005,396.751 81.037,395.104 C76.84,391.594 74.028,386.333 72.904,380.03 C71.833,374.02 72.304,367.01 74.592,359.675 C76.837,352.475 80.847,344.94 86.887,337.716 C108.691,311.639 118.792,310.15 122.534,320.852 C125.324,328.837 122.246,346.323 118.242,363.846 L118.242,363.846 Z" id="Fill-10" fill="#1B1038"></path>
            <path d="M80.809,350.54 C73.822,351.632 69.045,358.184 70.138,365.171 C71.23,372.157 77.782,376.932 84.768,375.842 C91.754,374.747 96.532,368.196 95.438,361.21 C94.345,354.223 87.794,349.448 80.809,350.54" id="Fill-11" fill="#6DE1FF"></path>
            <path d="M69.651,353.612 C72.105,350.249 75.843,347.817 80.28,347.124 C84.709,346.432 89.004,347.602 92.366,350.053 C95.731,352.508 98.161,356.245 98.853,360.68 C99.548,365.112 98.377,369.405 95.924,372.77 C93.47,376.133 89.734,378.563 85.296,379.255 C80.867,379.95 76.571,378.778 73.21,376.327 C69.847,373.874 67.416,370.135 66.722,365.698 C66.028,361.268 67.198,356.975 69.651,353.612 Z M81.338,353.956 C78.79,354.354 76.643,355.749 75.235,357.678 C73.825,359.612 73.153,362.085 73.553,364.641 C73.952,367.19 75.347,369.335 77.277,370.745 C79.209,372.155 81.683,372.825 84.24,372.425 C86.787,372.028 88.934,370.633 90.342,368.702 C91.751,366.768 92.424,364.294 92.023,361.739 C91.626,359.192 90.23,357.046 88.299,355.637 C86.367,354.227 83.893,353.555 81.338,353.956 L81.338,353.956 Z" id="Fill-12" fill="#1B1038"></path>
            <path d="M81.186,251.584 C83.383,249.387 86.423,248.025 89.778,248.025 C92.376,248.025 94.784,248.841 96.76,250.231 L96.157,259.681 L98.18,268.942 C95.989,271.04 93.028,272.329 89.778,272.329 C86.45,272.329 83.422,270.977 81.221,268.789 L81.186,268.757 C78.987,266.551 77.626,263.516 77.626,260.177 C77.626,256.943 78.901,253.996 80.98,251.809 L81.186,251.584 Z M89.778,254.964 C88.339,254.964 87.036,255.55 86.092,256.491 L85.948,256.628 C85.09,257.55 84.565,258.799 84.565,260.177 C84.565,261.627 85.143,262.929 86.079,263.863 L86.092,263.876 C87.026,264.812 88.33,265.39 89.778,265.39 C91.226,265.39 92.531,264.811 93.464,263.876 L93.464,263.863 C94.407,262.921 94.991,261.616 94.991,260.177 C94.991,258.738 94.407,257.433 93.464,256.491 C92.522,255.55 91.217,254.964 89.778,254.964 L89.778,254.964 Z" id="Fill-13" fill="#1B1038"></path>
            <path d="M283.583,256.491 C282.642,255.55 281.337,254.964 279.899,254.964 C278.46,254.964 277.154,255.55 276.212,256.491 L276.2,256.491 C275.264,257.424 274.685,258.729 274.685,260.177 C274.685,261.627 275.264,262.929 276.2,263.863 L276.212,263.876 C277.148,264.812 278.449,265.39 279.899,265.39 C281.277,265.39 282.527,264.866 283.448,264.007 L283.583,263.863 C284.528,262.921 285.111,261.616 285.111,260.177 C285.111,258.738 284.528,257.433 283.583,256.491 Z M279.899,248.025 C283.253,248.025 286.29,249.387 288.489,251.584 C290.69,253.784 292.05,256.821 292.05,260.177 C292.05,263.532 290.69,266.571 288.489,268.769 L288.265,268.975 C286.079,271.054 283.133,272.329 279.899,272.329 C276.695,272.329 273.772,271.079 271.595,269.036 L274.178,258.15 L272.904,250.238 C274.881,248.844 277.294,248.025 279.899,248.025 L279.899,248.025 Z" id="Fill-14" fill="#1B1038"></path>
            <path d="M163.186,317.801 C98.568,311.606 90.661,276.379 93.277,246.262 C94.019,237.727 95.624,229.699 96.98,222.91 C97.496,220.326 97.977,217.921 98.339,215.855 C98.643,214.107 100.209,212.894 101.937,212.988 L98.842,226.921 L101.23,238.258 C100.806,241.055 100.443,243.936 100.188,246.858 C97.912,273.071 104.723,303.632 159.419,310.412 C158.571,307.807 158.112,305.024 158.112,302.133 C158.112,300.217 159.666,298.665 161.582,298.665 C163.498,298.665 165.051,300.217 165.051,302.133 C165.051,307.598 167.267,312.546 170.847,316.127 C174.427,319.706 179.374,321.921 184.838,321.921 C190.303,321.921 195.25,319.706 198.829,316.127 C202.41,312.546 204.625,307.598 204.625,302.133 C204.625,300.217 206.18,298.665 208.095,298.665 C210.011,298.665 211.565,300.217 211.565,302.133 C211.565,305.024 211.106,307.807 210.255,310.412 C264.953,303.632 271.765,273.071 269.488,246.858 C269.158,243.062 268.643,239.338 268.054,235.773 L269.644,232.043 L272.984,224.35 C274.273,230.823 275.711,238.324 276.4,246.262 C279.016,276.379 271.109,311.606 206.491,317.801 C205.659,318.952 204.738,320.032 203.737,321.032 C198.899,325.868 192.216,328.86 184.838,328.86 C177.458,328.86 170.776,325.868 165.94,321.032 C164.939,320.032 164.019,318.952 163.186,317.801" id="Fill-15" fill="#1B1038"></path>
            <path d="M163.128,201.112 C156.754,194.738 147.945,190.794 138.218,190.794 C128.49,190.794 119.683,194.738 113.31,201.112 C106.935,207.486 102.993,216.293 102.993,226.02 C102.993,235.748 106.935,244.555 113.31,250.929 C119.683,257.303 128.49,261.247 138.218,261.247 C147.945,261.247 156.754,257.303 163.128,250.929 C169.501,244.555 173.446,235.748 173.446,226.02 C173.446,216.293 169.501,207.486 163.128,201.112 Z M138.218,183.855 C149.862,183.855 160.405,188.576 168.034,196.206 C175.663,203.836 180.385,214.377 180.385,226.02 C180.385,237.663 175.663,248.206 168.034,255.835 C160.405,263.466 149.862,268.186 138.218,268.186 C126.575,268.186 116.034,263.466 108.403,255.835 C100.772,248.206 96.052,237.663 96.052,226.02 C96.052,214.379 100.772,203.836 108.403,196.206 C116.034,188.576 126.575,183.855 138.218,183.855 L138.218,183.855 Z" id="Fill-16" fill="#1B1038"></path>
            <path d="M201.641,196.206 C209.272,188.576 219.813,183.855 231.458,183.855 C243.099,183.855 253.644,188.576 261.275,196.206 C268.902,203.836 273.623,214.377 273.623,226.02 C273.623,237.663 268.902,248.206 261.275,255.835 C253.644,263.466 243.099,268.186 231.458,268.186 C219.813,268.186 209.272,263.466 201.641,255.835 C194.011,248.206 189.291,237.663 189.291,226.02 C189.291,214.377 194.011,203.836 201.641,196.206 Z M231.458,190.794 C221.729,190.794 212.921,194.738 206.547,201.112 C200.173,207.486 196.233,216.293 196.233,226.02 C196.233,235.748 200.173,244.555 206.547,250.929 C212.921,257.303 221.729,261.247 231.458,261.247 C241.183,261.247 249.992,257.303 256.366,250.929 C262.74,244.555 266.683,235.748 266.683,226.02 C266.683,216.293 262.74,207.486 256.366,201.112 C249.992,194.738 241.183,190.794 231.458,190.794 L231.458,190.794 Z" id="Fill-17" fill="#1B1038"></path>
            <path d="M120.77,191.946 C122.099,186.915 122.731,180.818 122.521,173.431 C122.514,173.296 122.514,173.158 122.521,173.02 C122.633,171.111 124.272,169.656 126.18,169.768 L127.471,169.833 L128.758,169.841 C133.478,169.841 138.006,169.065 142.214,167.636 C145.238,166.61 148.101,165.249 150.763,163.6 C148.441,161.328 146.343,158.823 144.508,156.127 C143.438,154.548 143.85,152.398 145.43,151.328 C147.009,150.257 149.157,150.672 150.227,152.249 C152.502,155.595 155.253,158.594 158.384,161.152 C158.473,161.215 158.558,161.284 158.642,161.358 C160.703,163.016 162.928,164.483 165.285,165.732 C171.112,168.817 177.767,170.565 184.838,170.565 C191.91,170.565 198.563,168.817 204.39,165.732 C206.75,164.483 208.972,163.016 211.036,161.358 C211.118,161.284 211.203,161.215 211.293,161.152 C214.422,158.594 217.174,155.595 219.449,152.249 C220.52,150.672 222.668,150.257 224.246,151.328 C225.826,152.398 226.238,154.548 225.169,156.127 C223.333,158.823 221.235,161.328 218.913,163.6 C221.573,165.249 224.439,166.61 227.462,167.636 C231.669,169.065 236.196,169.841 240.919,169.841 L242.205,169.833 L243.498,169.768 C245.404,169.656 247.042,171.111 247.155,173.02 C247.164,173.158 247.164,173.293 247.155,173.427 C246.937,181.143 247.637,187.454 249.087,192.612 L241.349,189.823 C240.627,185.94 240.234,181.61 240.205,176.775 C234.986,176.699 229.957,175.798 225.24,174.196 C221.005,172.758 217.026,170.748 213.392,168.258 C211.559,169.587 209.628,170.792 207.616,171.857 C200.812,175.462 193.058,177.505 184.838,177.505 C176.619,177.505 168.867,175.462 162.06,171.857 C160.047,170.792 158.117,169.587 156.282,168.258 C152.652,170.748 148.672,172.758 144.437,174.196 C139.72,175.798 134.689,176.699 129.473,176.775 C129.445,181.145 129.12,185.103 128.527,188.688 L120.77,191.946" id="Fill-18" fill="#1B1038"></path>
            <path d="M184.838,338.925 C186.757,338.925 188.314,337.37 188.314,335.452 C188.314,333.534 186.757,331.977 184.838,331.977 C182.92,331.977 181.365,333.534 181.365,335.452 C181.365,337.37 182.92,338.925 184.838,338.925" id="Fill-19" fill="#1B1038"></path>
            <path d="M184.838,352.823 C186.757,352.823 188.314,351.266 188.314,349.348 C188.314,347.428 186.757,345.876 184.838,345.876 C182.92,345.876 181.365,347.428 181.365,349.348 C181.365,351.266 182.92,352.823 184.838,352.823" id="Fill-20" fill="#1B1038"></path>
            <path d="M184.838,91.36 C149.031,91.36 113.332,99.431 91.844,115.568 C69.407,132.414 62.931,158.598 89.684,194.228 L92.353,197.78 L88.248,199.499 C83.091,201.659 79.069,204.709 76.499,208.18 C74.481,210.908 73.375,213.883 73.359,216.843 C73.343,219.78 74.399,222.791 76.7,225.633 L77.648,226.719 C78.869,224.587 80.573,222.881 82.792,221.821 C86.206,220.192 90.658,220.223 96.173,222.814 C96.953,212.45 101.48,203.129 108.403,196.206 C112.208,192.401 116.735,189.32 121.763,187.188 C122.399,183.188 122.668,178.629 122.521,173.431 C122.514,173.296 122.514,173.158 122.521,173.02 C122.633,171.111 124.272,169.656 126.18,169.768 L127.471,169.833 L128.758,169.841 C133.478,169.841 138.006,169.065 142.214,167.636 C145.238,166.61 148.101,165.249 150.763,163.6 C148.441,161.328 146.343,158.823 144.508,156.127 C143.438,154.548 143.85,152.398 145.43,151.328 C147.009,150.257 149.157,150.672 150.227,152.249 C152.502,155.595 155.253,158.594 158.384,161.152 L158.642,161.358 C160.703,163.016 162.928,164.483 165.285,165.732 C171.112,168.817 177.767,170.565 184.838,170.565 C191.91,170.565 198.563,168.817 204.39,165.732 C206.75,164.483 208.972,163.016 211.036,161.358 L211.293,161.152 C214.422,158.594 217.174,155.595 219.449,152.249 C220.52,150.672 222.668,150.257 224.246,151.328 C225.826,152.398 226.238,154.548 225.169,156.127 C223.333,158.823 221.235,161.328 218.913,163.6 C221.573,165.249 224.439,166.61 227.462,167.636 C231.669,169.065 236.196,169.841 240.919,169.841 L242.205,169.833 L243.498,169.768 C245.404,169.656 247.042,171.111 247.155,173.02 C247.164,173.158 247.164,173.293 247.155,173.427 C247.007,178.626 247.279,183.187 247.914,187.188 C252.941,189.32 257.469,192.401 261.275,196.206 C268.195,203.129 272.724,212.45 273.504,222.814 C279.019,220.223 283.468,220.192 286.885,221.821 C289.101,222.881 290.804,224.586 292.027,226.719 L292.974,225.633 C295.275,222.791 296.334,219.779 296.317,216.843 C296.302,213.883 295.195,210.908 293.177,208.18 C290.608,204.709 286.585,201.659 281.429,199.499 L277.324,197.78 L279.99,194.228 C306.746,158.597 300.269,132.412 277.833,115.566 C256.342,99.429 220.646,91.36 184.838,91.36" id="Fill-21" fill="#D1D4E3"></path>
            <path d="M172.052,265.502 L197.625,265.502 C199.54,265.502 201.094,267.056 201.094,268.973 C201.094,273.461 199.273,277.527 196.333,280.466 C193.39,283.409 189.326,285.229 184.838,285.229 C180.366,285.229 176.305,283.409 173.357,280.466 L173.332,280.443 C170.397,277.495 168.582,273.439 168.582,268.973 C168.582,267.056 170.136,265.502 172.052,265.502 Z M207.616,171.857 C200.812,175.462 193.058,177.505 184.838,177.505 C176.619,177.505 168.867,175.462 162.06,171.857 C160.047,170.792 158.117,169.587 156.282,168.258 C152.652,170.748 148.672,172.758 144.437,174.196 C139.72,175.798 134.689,176.699 129.473,176.775 C129.456,179.642 129.309,182.333 129.042,184.856 C131.997,184.2 135.066,183.855 138.218,183.855 C149.862,183.855 160.405,188.576 168.034,196.206 C175.663,203.836 180.385,214.377 180.385,226.02 C180.385,237.663 175.663,248.206 168.034,255.835 C160.405,263.466 149.862,268.186 138.218,268.186 C126.575,268.186 116.034,263.466 108.403,255.835 C105.165,252.597 102.45,248.833 100.398,244.682 C100.322,245.404 100.251,246.13 100.188,246.858 C97.912,273.071 104.723,303.632 159.419,310.412 C158.571,307.807 158.112,305.024 158.112,302.133 C158.112,300.217 159.666,298.665 161.582,298.665 C163.498,298.665 165.051,300.217 165.051,302.133 C165.051,307.598 167.267,312.546 170.847,316.127 C174.427,319.706 179.374,321.921 184.838,321.921 C190.303,321.921 195.25,319.706 198.829,316.127 C202.41,312.546 204.625,307.598 204.625,302.133 C204.625,300.217 206.18,298.665 208.095,298.665 C210.011,298.665 211.565,300.217 211.565,302.133 C211.565,305.024 211.106,307.807 210.255,310.412 C264.953,303.632 271.765,273.071 269.488,246.858 C269.425,246.13 269.355,245.404 269.279,244.682 C267.224,248.833 264.511,252.597 261.275,255.835 C253.644,263.466 243.099,268.186 231.458,268.186 C219.813,268.186 209.272,263.466 201.641,255.835 C194.011,248.206 189.291,237.663 189.291,226.02 C189.291,214.377 194.011,203.836 201.641,196.206 C209.272,188.576 219.813,183.855 231.458,183.855 C234.61,183.855 237.679,184.2 240.634,184.856 C240.369,182.332 240.222,179.642 240.205,176.775 C234.986,176.699 229.957,175.798 225.24,174.196 C221.005,172.758 217.026,170.748 213.392,168.258 C211.559,169.587 209.628,170.792 207.616,171.857 L207.616,171.857 Z" id="Fill-22" fill="#FBD0A1"></path>
            <path d="M231.458,190.794 C221.729,190.794 212.921,194.738 206.547,201.112 C200.173,207.486 196.233,216.293 196.233,226.02 C196.233,235.748 200.173,244.555 206.547,250.929 C212.921,257.303 221.729,261.247 231.458,261.247 C241.183,261.247 249.992,257.303 256.366,250.929 C262.74,244.555 266.683,235.748 266.683,226.02 C266.683,216.293 262.74,207.486 256.366,201.112 C249.992,194.738 241.183,190.794 231.458,190.794" id="Fill-23" fill="#FFFFFF"></path>
            <path d="M173.446,226.02 C173.446,216.293 169.501,207.486 163.128,201.112 C156.754,194.738 147.945,190.794 138.218,190.794 C128.49,190.794 119.683,194.738 113.31,201.112 C106.935,207.486 102.993,216.293 102.993,226.02 C102.993,235.748 106.935,244.555 113.31,250.929 C119.683,257.303 128.49,261.247 138.218,261.247 C147.945,261.247 156.754,257.303 163.128,250.929 C169.501,244.555 173.446,235.748 173.446,226.02" id="Fill-24" fill="#FFFFFF"></path>
            <path d="M183.711,272.443 L176.184,272.443 C176.655,273.623 177.358,274.682 178.236,275.561 L178.249,275.574 C179.927,277.251 182.256,278.288 184.838,278.288 C187.411,278.288 189.741,277.247 191.427,275.561 C192.307,274.679 193.014,273.62 193.487,272.443 L183.711,272.443 Z M172.052,265.502 L197.625,265.502 C199.54,265.502 201.094,267.056 201.094,268.973 C201.094,273.461 199.273,277.527 196.333,280.466 C193.39,283.409 189.326,285.229 184.838,285.229 C180.366,285.229 176.305,283.409 173.357,280.466 L173.332,280.443 C170.397,277.495 168.582,273.439 168.582,268.973 C168.582,267.056 170.136,265.502 172.052,265.502 L172.052,265.502 Z" id="Fill-25" fill="#1B1038"></path>
            <path d="M193.487,272.443 L176.184,272.443 C176.655,273.623 177.358,274.682 178.236,275.561 L178.249,275.574 C179.927,277.251 182.256,278.288 184.838,278.288 C187.411,278.288 189.741,277.247 191.427,275.561 C192.307,274.679 193.014,273.62 193.487,272.443" id="Fill-26" fill="#FF917D"></path>
            <path d="M274.134,230.295 C275.049,235.259 275.912,240.651 276.4,246.262 C276.464,247.001 276.521,247.742 276.571,248.487 C277.626,248.185 278.746,248.025 279.899,248.025 C281.486,248.025 283.003,248.331 284.396,248.884 C284.763,248.225 285.105,247.535 285.411,246.824 C287.082,242.955 287.789,238.546 287.374,234.796 C287.023,231.613 285.896,229.035 283.904,228.083 C281.868,227.112 278.687,227.567 274.134,230.295" id="Fill-27" fill="#FBD0A1"></path>
            <path d="M93.277,246.262 C93.764,240.651 94.625,235.258 95.543,230.293 C90.989,227.567 87.81,227.111 85.773,228.083 C83.781,229.035 82.652,231.613 82.3,234.796 C81.889,238.546 82.595,242.955 84.265,246.824 C84.571,247.535 84.911,248.225 85.282,248.884 C86.673,248.331 88.189,248.025 89.778,248.025 C90.932,248.025 92.047,248.185 93.105,248.487 C93.155,247.742 93.212,247.001 93.277,246.262" id="Fill-28" fill="#FBD0A1"></path>
            <path d="M92.855,255.969 C91.993,255.338 90.929,254.964 89.778,254.964 C88.339,254.964 87.036,255.55 86.092,256.491 L85.948,256.628 C85.09,257.55 84.565,258.799 84.565,260.177 C84.565,261.627 85.143,262.929 86.079,263.863 L86.092,263.876 C87.026,264.812 88.33,265.39 89.778,265.39 C91.13,265.39 92.356,264.885 93.274,264.059 C92.996,261.364 92.867,258.662 92.855,255.969" id="Fill-29" fill="#6DE1FF"></path>
            <path d="M276.821,255.969 C276.809,258.66 276.683,261.364 276.403,264.059 C277.322,264.887 278.545,265.39 279.899,265.39 C281.277,265.39 282.527,264.866 283.448,264.007 L283.583,263.863 C284.528,262.921 285.111,261.616 285.111,260.177 C285.111,258.738 284.528,257.433 283.583,256.491 C282.642,255.55 281.337,254.964 279.899,254.964 C278.749,254.964 277.683,255.338 276.821,255.969" id="Fill-30" fill="#6DE1FF"></path>
            <path d="M152.505,312.516 C152.207,315.782 152.4,318.716 153.092,321.171 C153.806,323.708 155.058,325.69 156.851,326.915 C158.673,328.157 161.18,328.702 164.395,328.354 C167.953,327.966 172.267,326.508 177.361,323.758 L182.256,326.02 L183.773,325.688 L183.773,328.075 C176.514,332.43 170.294,334.675 165.126,335.237 C160.18,335.776 156.117,334.796 152.948,332.633 C149.748,330.45 147.579,327.144 146.422,323.042 C145.453,319.596 145.205,315.573 145.67,311.194 L152.505,312.516" id="Fill-31" fill="#1B1038"></path>
            <path d="M215.043,312.516 C215.34,315.782 215.149,318.716 214.457,321.171 C213.743,323.708 212.489,325.69 210.697,326.915 C208.875,328.157 206.368,328.702 203.155,328.354 C199.596,327.966 195.282,326.508 190.188,323.758 L185.291,326.02 L183.773,325.688 L183.773,328.075 C191.036,332.43 197.254,334.675 202.421,335.237 C207.368,335.776 211.432,334.796 214.602,332.633 C217.801,330.45 219.969,327.144 221.125,323.042 C222.097,319.596 222.344,315.573 221.879,311.194 L215.043,312.516" id="Fill-32" fill="#1B1038"></path>
            <path d="M156.851,326.915 C158.673,328.157 161.18,328.702 164.395,328.354 C166.83,328.089 169.617,327.325 172.767,325.985 C170.232,324.699 167.929,323.022 165.94,321.032 C164.939,320.032 164.019,318.952 163.186,317.801 C159.394,317.439 155.799,316.977 152.39,316.421 C152.455,318.149 152.688,319.741 153.092,321.171 C153.806,323.708 155.058,325.69 156.851,326.915" id="Fill-33" fill="#FFFFFF"></path>
            <path d="M166.106,328.094 C168.112,327.712 170.331,327.018 172.767,325.985 C170.232,324.699 167.929,323.022 165.94,321.032 C164.939,320.032 164.019,318.952 163.186,317.801 C160.219,317.518 157.374,317.172 154.641,316.768 C154.735,318.245 154.957,319.617 155.309,320.864 C156.024,323.401 157.276,325.384 159.07,326.609 C160.794,327.786 163.133,328.337 166.106,328.094" id="Fill-34" fill="#FF917D"></path>
            <path d="M203.737,321.032 C201.495,323.274 198.855,325.12 195.933,326.456 C198.617,327.503 201.021,328.122 203.155,328.354 C206.368,328.702 208.875,328.157 210.697,326.915 C212.489,325.69 213.743,323.708 214.457,321.171 C214.834,319.832 215.061,318.351 215.143,316.754 C212.379,317.163 209.497,317.516 206.491,317.801 C205.659,318.952 204.738,320.032 203.737,321.032" id="Fill-35" fill="#FF917D"></path>
            <path d="M187.249,349.348 C187.249,351.266 185.692,352.823 183.773,352.823 C181.854,352.823 180.299,351.266 180.299,349.348 C180.299,347.428 181.854,345.876 183.773,345.876 C185.692,345.876 187.249,347.428 187.249,349.348 Z M187.249,335.452 C187.249,337.37 185.692,338.925 183.773,338.925 C181.854,338.925 180.299,337.37 180.299,335.452 C180.299,333.534 181.854,331.977 183.773,331.977 C185.692,331.977 187.249,333.534 187.249,335.452 Z M214.602,332.633 C211.432,334.796 207.368,335.776 202.421,335.237 C197.575,334.71 191.801,332.7 185.109,328.858 C185.018,328.86 184.927,328.86 184.838,328.86 C184.083,328.86 183.336,328.827 182.598,328.768 C175.839,332.669 170.013,334.708 165.126,335.237 C160.18,335.776 156.117,334.796 152.948,332.633 C149.748,330.45 147.579,327.144 146.422,323.042 C145.748,320.649 145.424,317.977 145.443,315.106 C143.787,314.747 142.182,314.361 140.624,313.955 C138.578,320.973 137.114,328.11 136.291,335.258 C135.481,342.315 135.298,349.362 135.803,356.3 L231.747,356.3 C232.249,349.362 232.067,342.315 231.257,335.258 C230.455,328.28 229.039,321.311 227.07,314.452 C225.463,314.841 223.81,315.209 222.106,315.548 C222.088,318.255 221.764,320.773 221.125,323.042 C219.969,327.144 217.801,330.45 214.602,332.633 L214.602,332.633 Z" id="Fill-36" fill="#FFFFFF"></path>
            <path d="M222.827,363.237 L216.067,363.237 C215.602,367.012 214.979,370.792 214.21,374.573 C213.231,379.393 212.018,384.194 210.614,388.969 C210.229,390.278 209.137,391.188 207.874,391.409 C190.071,394.471 177.477,394.471 159.673,391.409 C158.413,391.188 157.319,390.278 156.935,388.969 C155.528,384.194 154.319,379.393 153.339,374.573 C152.571,370.792 151.946,367.012 151.48,363.237 L144.721,363.237 C147.312,388.233 156.572,404.563 167.929,412.3 C172.942,415.714 178.367,417.421 183.773,417.421 C189.182,417.421 194.608,415.714 199.62,412.3 C210.976,404.563 220.237,388.233 222.827,363.237" id="Fill-37" fill="#6DE1FF"></path>
            <path d="M97.026,392.856 C91.248,390.887 87.202,385.917 85.43,379.235 C85.386,379.243 85.34,379.249 85.296,379.255 C83.42,379.55 81.566,379.508 79.798,379.176 C80.667,383.708 82.63,387.407 85.481,389.79 C86.756,390.856 88.22,391.669 89.853,392.176 C92.121,392.883 94.582,393.116 97.026,392.856" id="Fill-38" fill="#FFFFFF"></path>
            <path d="M87.984,347.78 C88.831,348.067 89.65,348.425 90.435,348.842 C92.453,345.024 95.01,341.194 98.147,337.442 C103.803,330.676 108.506,325.696 112.39,322.239 C108.813,323.895 102.478,329.866 92.2,342.161 C90.646,344.018 89.243,345.895 87.984,347.78" id="Fill-39" fill="#FFFFFF"></path>
            <path d="M251.548,323.131 C249.271,329.649 252.378,346.319 256.242,363.106 L256.43,363.923 L256.228,364.717 C254.544,371.368 254.67,376.766 255.989,380.991 C256.986,384.184 258.667,386.71 260.742,388.587 C262.82,390.464 265.324,391.729 267.966,392.397 C271.212,393.219 274.631,393.133 277.698,392.176 C279.332,391.669 280.793,390.856 282.068,389.79 C284.919,387.407 286.882,383.708 287.75,379.176 C286.099,379.487 284.378,379.544 282.63,379.311 L282.253,379.255 C277.816,378.563 274.078,376.133 271.624,372.77 C269.172,369.405 268.001,365.112 268.696,360.68 C269.39,356.245 271.818,352.508 275.181,350.053 C276.515,349.083 277.99,348.315 279.564,347.78 C278.307,345.895 276.904,344.018 275.349,342.161 C259.365,323.042 252.916,319.211 251.548,323.131" id="Fill-40" fill="#D1D4E3"></path>
            <path d="M256.43,363.923 L256.228,364.717 C254.544,371.368 254.67,376.766 255.989,380.991 C256.986,384.184 258.667,386.71 260.742,388.587 C262.82,390.464 265.324,391.729 267.966,392.397 C271.212,393.219 274.631,393.133 277.698,392.176 C277.98,392.089 278.257,391.989 278.531,391.883 C277.297,391.925 276.05,391.841 274.817,391.63 C272.132,391.167 269.535,390.098 267.319,388.389 C265.105,386.68 263.234,384.294 261.992,381.186 C260.35,377.075 259.806,371.702 260.968,364.942 L261.109,364.132 L260.857,363.333 C255.707,346.899 251.313,330.516 253.082,323.842 C253.376,322.727 254.109,322.176 255.388,322.35 C253.257,321.292 252.054,321.68 251.548,323.131 C249.271,329.649 252.378,346.319 256.242,363.106 L256.43,363.923" id="Fill-41" fill="#FFFFFF"></path>
            <path d="M151.133,360.106 C150.947,358.206 152.335,356.512 154.237,356.325 C156.138,356.137 157.831,357.528 158.018,359.43 C158.474,364.018 159.184,368.606 160.116,373.19 C160.909,377.087 161.867,381.001 162.974,384.928 C177.799,387.262 189.75,387.262 204.573,384.928 C205.682,381.001 206.639,377.087 207.433,373.19 C208.364,368.606 209.075,364.018 209.532,359.43 C209.717,357.528 211.412,356.137 213.313,356.325 C215.213,356.512 216.603,358.206 216.415,360.106 C215.938,364.925 215.19,369.747 214.21,374.573 C213.231,379.393 212.018,384.194 210.614,388.969 C210.229,390.278 209.137,391.188 207.874,391.409 C190.071,394.471 177.477,394.471 159.673,391.409 C158.413,391.188 157.319,390.278 156.935,388.969 C155.528,384.194 154.319,379.393 153.339,374.573 C152.357,369.747 151.612,364.925 151.133,360.106" id="Fill-42" fill="#1B1038"></path>
            <path d="M160.116,373.19 C160.909,377.087 161.867,381.001 162.974,384.928 C177.799,387.262 189.75,387.262 204.573,384.928 C205.682,381.001 206.639,377.087 207.433,373.19 C208.107,369.874 208.666,366.557 209.096,363.237 L158.454,363.237 C158.883,366.557 159.442,369.874 160.116,373.19" id="Fill-43" fill="#FF917D"></path>
            <path d="M209.096,363.237 L205.876,363.237 C205.665,366.087 205.358,368.94 204.973,371.798 C204.434,375.739 203.734,379.706 202.887,383.702 C196.209,385.206 190.094,386.186 184,386.676 C190.618,386.665 197.245,386.083 204.573,384.928 C205.682,381.001 206.639,377.087 207.433,373.19 C208.107,369.874 208.666,366.557 209.096,363.237" id="Fill-44" fill="#FFFFFF"></path>
            <path d="M104.707,200.427 C75.182,168.146 67.728,137.945 104.09,113.061 C126.267,97.882 162.285,91.385 198.058,92.957 C216.362,93.76 234.544,96.672 250.721,101.613 C231.396,94.779 208.139,91.36 184.838,91.36 C149.031,91.36 113.332,99.431 91.844,115.568 C69.407,132.414 62.931,158.598 89.684,194.228 L92.353,197.78 L88.248,199.499 C83.091,201.659 79.069,204.709 76.499,208.18 C74.481,210.908 73.375,213.883 73.359,216.843 C73.343,219.78 74.399,222.791 76.7,225.633 L77.648,226.719 C78.869,224.587 80.573,222.881 82.792,221.821 C82.945,221.749 83.101,221.678 83.258,221.612 C73.915,212.977 90.731,201.926 104.707,200.427" id="Fill-45" fill="#FFFFFF"></path>
            <g id="Group-49" transform="translate(147.957000, 0.000000)">
                <mask id="mask-2" fill="white">
                    <use xlink:href="#path-1"></use>
                </mask>
                <g id="Clip-47"></g>
                <path d="M31.767,4.116 C13.722,6.941 1.383,23.86 4.207,41.906 C7.03,59.949 23.951,72.29 41.993,69.467 C60.038,66.641 72.38,49.722 69.555,31.678 C66.73,13.633 49.812,1.293 31.767,4.116" id="Fill-46" fill="#6DE1FF" mask="url(#mask-2)"></path>
                <path d="M7.37,15.271 C12.879,7.715 21.271,2.262 31.239,0.702 C41.196,-0.857 50.851,1.771 58.402,7.28 C65.956,12.79 71.413,21.181 72.971,31.149 L73.024,31.51 C74.463,41.339 71.836,50.852 66.391,58.313 C60.883,65.867 52.491,71.322 42.526,72.881 L42.161,72.936 C32.332,74.375 22.821,71.744 15.359,66.303 C7.806,60.794 2.351,52.401 0.792,42.434 L0.737,42.073 C-0.704,32.243 1.927,22.732 7.37,15.271 Z M32.297,7.532 C24.217,8.797 17.417,13.215 12.952,19.336 C8.487,25.46 6.357,33.291 7.622,41.376 L7.627,41.41 C8.897,49.471 13.313,56.26 19.425,60.72 C25.549,65.185 33.379,67.315 41.466,66.049 L41.528,66.041 C49.577,64.764 56.357,60.351 60.809,54.246 C65.276,48.122 67.404,40.292 66.139,32.208 L66.135,32.177 C64.864,24.112 60.45,17.323 54.334,12.862 C48.214,8.398 40.38,6.267 32.297,7.532 L32.297,7.532 Z" id="Fill-48" fill="#1B1038" mask="url(#mask-2)"></path>
            </g>
            <path d="M210.553,29.037 C213.145,45.603 201.815,61.138 185.248,63.731 C179.54,64.622 173.956,63.864 168.98,61.806 C174.839,65.523 182.025,67.208 189.423,66.049 L189.485,66.041 C197.534,64.764 204.314,60.351 208.766,54.246 C213.233,48.122 215.361,40.292 214.096,32.208 L214.092,32.177 C212.898,24.588 208.916,18.127 203.354,13.676 C207.045,17.862 209.625,23.116 210.553,29.037" id="Fill-50" fill="#FFFFFF"></path>
            <polygon id="Fill-51" fill="#1B1038" points="181.368 87.537 188.308 87.537 188.308 70.51 181.368 70.51"></polygon>
            <path d="M231.458,196.206 C223.224,196.206 215.77,199.544 210.375,204.94 C204.979,210.333 201.641,217.786 201.641,226.02 C201.641,234.253 204.979,241.708 210.375,247.102 C215.77,252.497 223.224,255.835 231.458,255.835 C239.692,255.835 247.146,252.498 252.54,247.102 C257.934,241.708 261.271,234.253 261.271,226.02 C261.271,217.786 257.934,210.333 252.54,204.94 C247.146,199.544 239.692,196.206 231.458,196.206" id="Fill-52" fill="#6DE1FF"></path>
            <path d="M253.964,227.055 C255.289,228.43 255.245,230.623 253.867,231.947 C252.49,233.271 250.3,233.229 248.976,231.852 C246.722,229.516 243.999,227.627 240.962,226.337 C238.058,225.104 234.845,224.42 231.458,224.42 C228.068,224.42 224.855,225.104 221.95,226.337 C218.913,227.627 216.194,229.516 213.94,231.852 C212.616,233.229 210.422,233.271 209.045,231.947 C207.668,230.623 207.627,228.43 208.952,227.055 C211.85,224.049 215.343,221.622 219.24,219.968 C223.006,218.366 227.138,217.481 231.458,217.481 C235.775,217.481 239.907,218.366 243.673,219.968 C247.57,221.621 251.062,224.049 253.964,227.055" id="Fill-53" fill="#1B1038"></path>
            <path d="M257.123,219.103 C258.214,217.536 257.826,215.379 256.259,214.289 C254.691,213.197 252.535,213.586 251.445,215.154 C250.415,216.623 249.162,217.944 247.728,219.056 C246.322,220.148 244.748,221.037 243.05,221.671 C242.83,221.754 242.623,221.855 242.431,221.976 L248.29,226.883 C249.597,226.198 250.83,225.407 251.975,224.52 C253.958,222.982 255.692,221.15 257.123,219.103" id="Fill-54" fill="#1B1038"></path>
            <path d="M246.728,212.435 C247.378,210.64 246.451,208.655 244.656,208.003 C242.861,207.353 240.874,208.28 240.224,210.075 C239.609,211.761 238.738,213.359 237.638,214.801 C236.558,216.218 235.263,217.482 233.786,218.531 C233.594,218.666 233.421,218.818 233.267,218.983 L240.189,222.221 C241.278,221.224 242.263,220.142 243.14,218.991 C244.665,216.995 245.872,214.779 246.728,212.435" id="Fill-55" fill="#1B1038"></path>
            <path d="M138.218,196.206 C146.45,196.206 153.906,199.544 159.301,204.94 C164.695,210.333 168.034,217.786 168.034,226.02 C168.034,234.253 164.695,241.708 159.301,247.102 C153.906,252.497 146.45,255.835 138.218,255.835 C129.985,255.835 122.531,252.498 117.137,247.102 C111.742,241.708 108.403,234.253 108.403,226.02 C108.403,217.786 111.742,210.333 117.137,204.94 C122.531,199.544 129.985,196.206 138.218,196.206" id="Fill-56" fill="#6DE1FF"></path>
            <path d="M115.713,227.055 C114.389,228.43 114.431,230.623 115.807,231.947 C117.184,233.271 119.375,233.229 120.701,231.852 C122.955,229.516 125.675,227.627 128.711,226.337 C131.619,225.104 134.829,224.42 138.219,224.42 C141.608,224.42 144.82,225.104 147.726,226.337 C150.761,227.627 153.483,229.516 155.736,231.852 C157.06,233.229 159.251,233.271 160.628,231.947 C162.005,230.623 162.048,228.43 160.724,227.055 C157.824,224.049 154.331,221.622 150.436,219.968 C146.669,218.366 142.539,217.481 138.219,217.481 C133.899,217.481 129.769,218.366 126,219.968 C122.106,221.621 118.613,224.049 115.713,227.055" id="Fill-57" fill="#1B1038"></path>
            <path d="M112.552,219.103 C111.462,217.536 111.849,215.379 113.417,214.289 C114.984,213.197 117.142,213.586 118.232,215.154 C119.26,216.623 120.512,217.944 121.945,219.056 C123.353,220.148 124.928,221.037 126.626,221.671 C126.845,221.754 127.051,221.855 127.244,221.976 L121.385,226.883 C120.077,226.198 118.845,225.407 117.702,224.52 C115.719,222.982 113.982,221.15 112.552,219.103" id="Fill-58" fill="#1B1038"></path>
            <path d="M122.949,212.435 C122.297,210.64 123.224,208.655 125.02,208.003 C126.816,207.353 128.799,208.28 129.451,210.075 C130.067,211.761 130.938,213.359 132.038,214.801 C133.119,216.218 134.411,217.482 135.89,218.531 C136.081,218.666 136.253,218.818 136.409,218.983 L129.486,222.221 C128.397,221.224 127.41,220.142 126.533,218.991 C125.012,216.995 123.805,214.779 122.949,212.435" id="Fill-59" fill="#1B1038"></path>
            <path d="M148.567,41.13 C113.835,48.301 82.793,65.561 58.642,89.714 C26.345,122.011 6.368,166.629 6.368,215.912 C6.368,265.195 26.345,309.815 58.642,342.108 C62.368,345.835 66.256,349.397 70.298,352.782 C72.725,349.868 76.18,347.782 80.214,347.135 C82.078,343.971 84.296,340.813 86.887,337.716 C108.69,311.635 118.792,310.15 122.534,320.852 C125.324,328.837 122.246,346.319 118.242,363.846 C119.89,370.801 119.822,376.739 118.566,381.671 C126.616,384.893 134.956,387.546 143.534,389.579 C140.753,382.028 138.741,373.247 137.756,363.237 L132.634,363.237 C130.753,363.237 129.222,361.739 129.165,359.874 C128.32,351.487 128.43,342.967 129.405,334.475 C130.272,326.948 131.821,319.414 133.99,311.986 C108.678,303.522 98.053,288.1 94.432,271.401 C92.998,272 91.426,272.329 89.778,272.329 C86.45,272.329 83.422,270.977 81.221,268.789 L81.185,268.757 C78.985,266.551 77.626,263.516 77.626,260.177 C77.626,257.61 78.431,255.221 79.802,253.251 C79.085,252.086 78.448,250.847 77.894,249.564 C75.773,244.647 74.882,238.979 75.412,234.084 C73.831,232.774 72.476,231.407 71.334,229.998 C67.968,225.841 66.421,221.317 66.448,216.814 C66.471,212.338 68.053,207.962 70.941,204.06 C73.526,200.569 77.173,197.445 81.683,194.98 C54.862,157.064 62.827,128.712 87.696,110.037 C109.73,93.494 145.388,84.963 181.369,84.448 L181.369,73.162 C174.743,72.535 168.53,70.105 163.316,66.303 C155.764,60.793 150.308,52.401 148.749,42.434 L148.694,42.075 C148.648,41.758 148.605,41.445 148.567,41.13" id="Fill-64" fill="#FF917D"></path>
            <path d="M281.98,110.037 C306.849,128.712 314.815,157.061 287.995,194.979 C292.503,197.445 296.149,200.567 298.733,204.06 C301.623,207.962 303.206,212.338 303.23,216.814 C303.253,221.317 301.708,225.84 298.341,229.998 C297.2,231.407 295.845,232.774 294.265,234.082 C294.795,238.977 293.904,244.647 291.782,249.564 C291.228,250.844 290.593,252.079 289.878,253.244 C291.246,255.21 292.05,257.599 292.05,260.177 C292.05,263.532 290.687,266.571 288.489,268.77 L288.265,268.976 C286.079,271.054 283.133,272.329 279.896,272.329 C278.251,272.329 276.679,272 275.244,271.401 C271.53,288.522 260.458,304.3 233.742,312.616 C235.814,319.838 237.302,327.159 238.141,334.475 C239.126,343.05 239.233,351.655 238.359,360.122 C238.173,361.901 236.669,363.231 234.915,363.237 L229.792,363.237 C228.783,373.481 226.703,382.442 223.816,390.112 C232.529,388.173 241.004,385.591 249.188,382.428 C247.738,377.35 247.576,371.163 249.306,363.846 C245.304,346.319 242.226,328.837 245.015,320.852 C248.755,310.15 258.855,311.635 280.662,337.716 C283.251,340.813 285.47,343.971 287.335,347.135 C291.744,347.844 295.455,350.266 297.9,353.612 C297.958,353.694 298.017,353.776 298.077,353.862 C302.587,350.157 306.911,346.235 311.037,342.108 C343.33,309.815 363.308,265.195 363.308,215.912 C363.308,166.628 343.33,122.009 311.037,89.714 C286.885,65.564 255.845,48.302 221.118,41.131 C220.364,47.428 217.983,53.328 214.348,58.313 C208.84,65.866 200.448,71.322 190.48,72.881 L190.118,72.936 C189.512,73.024 188.908,73.098 188.308,73.156 L188.308,84.448 C224.29,84.963 259.947,93.494 281.98,110.037 Z" id="Fill-65" fill="#FF917D"></path>
        </g>
    </g>
</svg>