<?xml version="1.0" encoding="UTF-8"?>
<svg width="542px" height="664px" viewBox="0 0 542 664" version="1.1" xmlns="http://www.w3.org/2000/svg" xmlns:xlink="http://www.w3.org/1999/xlink">
    <title>mascot confused</title>
    <defs>
        <polygon id="path-1" points="0.06 0.074 541.196 0.074 541.196 618 0.06 618"></polygon>
        <polygon id="path-3" points="0.11363242 0.961 107.080921 0.961 107.080921 107.928921 0.11363242 107.928921"></polygon>
    </defs>
    <g id="mascot-confused" stroke="none" stroke-width="1" fill="none" fill-rule="evenodd">
        <g id="Group-4" transform="translate(0.000000, 46.000000)">
            <mask id="mask-2" fill="white">
                <use xlink:href="#path-1"></use>
            </mask>
            <g id="Clip-2"></g>
            <path d="M270.593,611.378 C302.679,611.378 328.688,612.861 328.688,614.691 C328.688,616.517 302.679,618.002 270.593,618.002 C238.507,618.002 212.495,616.517 212.495,614.691 C212.495,612.861 238.507,611.378 270.593,611.378" id="Fill-1" fill="#1B1038" mask="url(#mask-2)"></path>
            <path d="M455.347,85.922 C408.067,38.643 342.747,9.398 270.597,9.398 C198.449,9.398 133.129,38.643 85.849,85.922 C38.569,133.204 9.324,198.524 9.324,270.672 C9.324,342.82 38.569,408.14 85.849,455.421 C133.129,502.701 198.449,531.947 270.597,531.947 C342.745,531.947 408.065,502.701 455.347,455.421 C502.627,408.14 531.871,342.82 531.871,270.672 C531.871,198.523 502.627,133.202 455.347,85.922 Z M270.597,0.074 C345.321,0.074 412.976,30.362 461.941,79.328 C510.906,128.294 541.196,195.947 541.196,270.672 C541.196,345.394 510.906,413.048 461.941,462.015 C412.974,510.982 345.32,541.271 270.597,541.271 C195.874,541.271 128.221,510.982 79.255,462.015 C30.289,413.048 0,345.394 0,270.672 C0,195.949 30.289,128.296 79.255,79.328 C128.221,30.362 195.874,0.074 270.597,0.074 L270.597,0.074 Z" id="Fill-3" fill="#1B1038" mask="url(#mask-2)"></path>
        </g>
        <path d="M148.331,331.135 C150.642,332.701 151.246,335.848 149.68,338.158 C148.113,340.471 144.967,341.074 142.655,339.508 C134.481,333.949 128.95,332.877 125.569,334.49 C122.651,335.883 121,339.658 120.487,344.316 C119.883,349.807 120.916,356.26 123.362,361.927 C124.532,364.64 126.03,367.148 127.821,369.222 L119.519,375.158 C117.32,372.431 115.485,369.293 114.036,365.935 C110.931,358.738 109.625,350.44 110.4,343.274 C108.087,341.357 106.103,339.356 104.432,337.293 C99.504,331.208 97.24,324.586 97.277,317.994 C97.312,311.439 99.629,305.033 103.858,299.319 C107.642,294.208 112.979,289.636 119.581,286.027 C80.317,230.518 91.978,189.013 128.385,161.676 C161.679,136.675 216.221,124.175 270.598,124.175 C324.974,124.175 379.517,136.675 412.811,161.674 C449.217,189.012 460.878,230.516 421.614,286.026 C428.215,289.634 433.553,294.207 437.336,299.319 C441.565,305.033 443.882,311.44 443.918,317.994 C443.954,324.586 441.689,331.207 436.763,337.293 C435.092,339.356 433.107,341.357 430.794,343.272 C431.569,350.44 430.265,358.738 427.159,365.935 C425.839,368.996 424.197,371.875 422.253,374.423 L414.101,368.336 C415.572,366.449 416.824,364.265 417.833,361.927 C420.279,356.26 421.313,349.807 420.708,344.316 C420.194,339.658 418.542,335.883 415.625,334.49 C412.245,332.879 406.714,333.949 398.538,339.508 C396.228,341.074 393.081,340.471 391.515,338.158 C389.948,335.848 390.553,332.701 392.864,331.135 C404.505,323.22 413.519,322.235 419.989,325.323 C423.237,326.873 425.73,329.37 427.519,332.494 C428.01,331.967 428.474,331.438 428.906,330.902 C432.274,326.742 433.823,322.334 433.8,318.035 C433.776,313.7 432.158,309.345 429.2,305.352 C425.44,300.27 419.552,295.805 412.003,292.644 L405.995,290.128 L409.899,284.926 C449.066,232.765 439.584,194.432 406.739,169.77 C375.278,146.146 323.017,134.334 270.598,134.334 C218.177,134.334 165.917,146.147 134.455,169.77 C101.61,194.433 92.13,232.766 131.295,284.926 L135.201,290.128 L129.192,292.644 C121.644,295.805 115.755,300.27 111.993,305.352 C109.038,309.345 107.419,313.7 107.396,318.035 C107.372,322.334 108.919,326.742 112.289,330.902 C112.722,331.437 113.184,331.969 113.676,332.494 C115.462,329.372 117.958,326.873 121.205,325.323 C127.676,322.235 136.689,323.22 148.331,331.135" id="Fill-5" fill="#1B1038"></path>
        <path d="M206.323,527.273 C215.226,646.58 322.854,646.58 331.757,527.273 L206.323,527.273" id="Fill-6" fill="#FFFFFF"></path>
        <path d="M240.129,612.548 C220.358,599.084 204.479,570.74 201.264,527.65 L200.857,522.193 L337.224,522.193 L336.815,527.65 C333.601,570.74 317.722,599.084 297.951,612.548 C288.866,618.736 278.966,621.832 269.04,621.832 C259.116,621.832 249.215,618.738 240.129,612.548 Z M211.868,532.353 C215.66,568.945 229.217,592.851 245.845,604.175 C253.182,609.173 261.125,611.673 269.04,611.673 C276.956,611.673 284.899,609.173 292.236,604.175 C308.862,592.851 322.42,568.945 326.212,532.353 L211.868,532.353 L211.868,532.353 Z" id="Fill-7" fill="#1B1038"></path>
        <path d="M269.04,532.353 L194.172,532.353 C191.419,532.353 189.178,530.162 189.095,527.427 C187.856,515.15 188.019,502.677 189.448,490.244 C190.911,477.513 193.712,464.767 197.702,452.265 L205.606,454.681 L222.607,457.968 C215.663,458.044 210.034,458.14 206.446,458.255 C203.149,469.156 200.808,480.265 199.527,491.394 C198.341,501.722 198.073,512.039 198.81,522.193 L339.27,522.193 C340.007,512.039 339.739,501.722 338.553,491.394 C337.272,480.265 334.931,469.156 331.634,458.255 L340.985,454.203 C344.654,466.084 347.245,478.171 348.632,490.244 C350.075,502.8 350.228,515.394 348.948,527.789 C348.681,530.398 346.477,532.341 343.908,532.339 L343.908,532.353 L269.04,532.353" id="Fill-8" fill="#1B1038"></path>
        <path d="M365.076,561.359 C362.705,553.761 362.337,544.396 364.978,533.244 C359.115,507.587 354.609,481.99 358.694,470.302 C364.17,454.632 378.958,456.81 410.88,494.988 C419.722,505.564 425.593,516.599 428.881,527.136 C432.231,537.877 432.918,548.14 431.351,556.935 C429.706,566.164 425.589,573.867 419.444,579.003 C416.563,581.414 413.249,583.248 409.554,584.402 C403.306,586.351 396.373,586.539 389.833,584.884 C384.442,583.519 379.277,580.894 374.933,576.962 C370.587,573.035 367.101,567.841 365.076,561.359 Z M375.109,534.519 C372.645,544.255 372.831,552.16 374.76,558.343 C376.221,563.019 378.679,566.716 381.719,569.464 C384.757,572.212 388.427,574.062 392.293,575.043 C397.046,576.244 402.054,576.119 406.539,574.718 C408.93,573.972 411.073,572.785 412.938,571.226 C417.218,567.646 420.129,562.048 421.351,555.189 C422.649,547.9 422.046,539.281 419.197,530.15 C416.284,520.82 411.039,510.988 403.103,501.496 C379.701,473.509 370.263,467.898 368.258,473.638 C364.923,483.179 369.476,507.587 375.129,532.158 L375.405,533.355 L375.109,534.519 L375.109,534.519 Z" id="Fill-9" fill="#1B1038"></path>
        <path d="M419.779,513.763 C430.007,515.365 437.001,524.955 435.4,535.181 C433.8,545.41 424.211,552.404 413.982,550.802 C403.756,549.203 396.761,539.613 398.361,529.384 C399.962,519.158 409.552,512.164 419.779,513.763" id="Fill-10" fill="#6DE1FF"></path>
        <path d="M427.938,524.214 C425.878,521.388 422.736,519.347 419.005,518.763 C415.264,518.179 411.641,519.164 408.812,521.226 C405.987,523.287 403.944,526.429 403.36,530.16 C402.776,533.9 403.761,537.525 405.824,540.353 C407.875,543.164 410.998,545.201 414.704,545.794 L414.759,545.802 C418.499,546.388 422.122,545.404 424.95,543.341 C427.763,541.291 429.798,538.168 430.392,534.461 L430.4,534.408 C430.985,530.666 430.002,527.043 427.938,524.214 Z M420.554,508.763 C427.049,509.779 432.521,513.337 436.112,518.261 C439.601,523.044 441.317,529.117 440.479,535.408 L440.4,535.959 C439.385,542.453 435.827,547.923 430.903,551.515 C426.121,555.003 420.048,556.72 413.759,555.882 L413.208,555.802 C406.714,554.789 401.242,551.232 397.649,546.306 C394.061,541.384 392.346,535.095 393.36,528.611 C394.377,522.117 397.934,516.644 402.858,513.052 C407.781,509.462 414.069,507.748 420.554,508.763 L420.554,508.763 Z" id="Fill-11" fill="#1B1038"></path>
        <path d="M167.893,533.289 C177.534,571.39 149.739,585.712 130.034,579.56 C106.941,572.351 102.095,532.919 131.09,498.242 C186.413,432.076 179.539,482.669 167.893,533.289" id="Fill-12" fill="#D1D4E3"></path>
        <path d="M163.321,558.343 C165.251,552.16 165.437,544.255 162.972,534.519 L162.677,533.355 L162.952,532.158 C168.604,507.586 173.157,483.181 169.823,473.638 C167.818,467.9 158.378,473.509 134.979,501.496 C127.042,510.988 121.796,520.82 118.884,530.15 C116.035,539.281 115.432,547.9 116.73,555.189 C117.952,562.048 120.863,567.646 125.144,571.226 C127.008,572.785 129.151,573.972 131.542,574.718 C136.027,576.119 141.035,576.244 145.788,575.043 C149.654,574.062 153.323,572.212 156.362,569.464 C159.401,566.716 161.86,563.019 163.321,558.343 Z M173.104,533.244 C175.745,544.396 175.376,553.761 173.005,561.359 C170.979,567.841 167.494,573.035 163.148,576.962 C158.804,580.894 153.639,583.519 148.248,584.884 C141.708,586.539 134.775,586.351 128.526,584.402 C124.832,583.248 121.519,581.414 118.636,579.003 C112.492,573.867 108.376,566.164 106.729,556.935 C105.163,548.14 105.851,537.877 109.2,527.136 C112.489,516.599 118.358,505.564 127.201,494.988 C159.12,456.81 173.909,454.632 179.386,470.302 C183.47,481.99 178.964,507.587 173.104,533.244 L173.104,533.244 Z" id="Fill-13" fill="#1B1038"></path>
        <path d="M118.302,513.763 C108.074,515.365 101.079,524.955 102.679,535.181 C104.28,545.41 113.87,552.404 124.099,550.802 C134.325,549.203 141.32,539.613 139.72,529.384 C138.119,519.158 128.528,512.164 118.302,513.763" id="Fill-14" fill="#6DE1FF"></path>
        <path d="M101.968,518.261 C105.561,513.337 111.032,509.779 117.528,508.763 C124.013,507.748 130.3,509.462 135.223,513.052 C140.146,516.644 143.704,522.117 144.72,528.611 C145.735,535.095 144.021,541.384 140.431,546.306 C136.839,551.232 131.367,554.789 124.872,555.802 C118.388,556.818 112.099,555.105 107.178,551.515 C102.253,547.923 98.696,542.453 97.679,535.957 C96.664,529.47 98.378,523.183 101.968,518.261 Z M119.076,518.763 C115.346,519.347 112.203,521.388 110.142,524.214 C108.079,527.043 107.095,530.666 107.68,534.408 C108.263,538.138 110.306,541.281 113.131,543.341 C115.959,545.404 119.583,546.388 123.324,545.802 C127.055,545.22 130.196,543.177 132.257,540.353 C134.32,537.525 135.305,533.9 134.72,530.16 C134.137,526.429 132.095,523.287 129.27,521.226 C126.44,519.164 122.817,518.179 119.076,518.763 L119.076,518.763 Z" id="Fill-15" fill="#1B1038"></path>
        <path d="M118.854,368.894 C122.073,365.677 126.521,363.683 131.434,363.683 C135.236,363.683 138.762,364.878 141.654,366.914 L140.771,380.75 L143.731,394.306 C140.526,397.377 136.191,399.265 131.434,399.265 C126.56,399.265 122.129,397.285 118.904,394.082 L118.854,394.033 C115.634,390.806 113.643,386.363 113.643,381.474 C113.643,376.74 115.51,372.425 118.553,369.224 L118.854,368.894 Z M131.434,373.843 C129.326,373.843 127.417,374.699 126.037,376.078 L125.824,376.277 C124.569,377.628 123.802,379.455 123.802,381.474 C123.802,383.593 124.647,385.502 126.018,386.871 L126.037,386.89 C127.405,388.259 129.313,389.105 131.434,389.105 C133.554,389.105 135.462,388.257 136.829,386.89 L136.829,386.871 C138.209,385.492 139.064,383.582 139.064,381.474 C139.064,379.367 138.209,377.457 136.829,376.078 C135.45,374.699 133.54,373.843 131.434,373.843 L131.434,373.843 Z" id="Fill-16" fill="#1B1038"></path>
        <path d="M415.158,376.078 C413.778,374.699 411.868,373.843 409.762,373.843 C407.654,373.843 405.745,374.699 404.365,376.078 L404.346,376.078 C402.978,377.445 402.13,379.353 402.13,381.474 C402.13,383.593 402.977,385.502 404.346,386.871 L404.365,386.89 C405.733,388.259 407.642,389.105 409.762,389.105 C411.78,389.105 413.607,388.337 414.958,387.084 L415.158,386.871 C416.538,385.492 417.394,383.582 417.394,381.474 C417.394,379.367 416.538,377.457 415.158,376.078 Z M409.762,363.683 C414.673,363.683 419.122,365.677 422.341,368.894 C425.559,372.113 427.552,376.562 427.552,381.474 C427.552,386.386 425.559,390.834 422.341,394.052 L422.011,394.355 C418.812,397.398 414.495,399.265 409.762,399.265 C405.073,399.265 400.795,397.433 397.605,394.443 L401.388,378.505 L399.523,366.923 C402.419,364.884 405.95,363.683 409.762,363.683 L409.762,363.683 Z" id="Fill-17" fill="#1B1038"></path>
        <path d="M238.898,465.836 C144.301,456.765 132.725,405.193 136.556,361.101 C137.641,348.607 139.99,336.854 141.977,326.916 C142.73,323.134 143.437,319.611 143.966,316.588 C144.411,314.029 146.703,312.255 149.234,312.393 L144.702,332.789 L148.197,349.385 C147.578,353.481 147.044,357.697 146.674,361.974 C143.341,400.351 153.313,445.089 233.385,455.017 C232.143,451.201 231.472,447.127 231.472,442.896 C231.472,440.091 233.746,437.818 236.551,437.818 C239.355,437.818 241.63,440.091 241.63,442.896 C241.63,450.896 244.873,458.14 250.114,463.38 C255.354,468.621 262.599,471.867 270.598,471.867 C278.597,471.867 285.84,468.621 291.081,463.38 C296.321,458.14 299.564,450.896 299.564,442.896 C299.564,440.091 301.839,437.818 304.644,437.818 C307.448,437.818 309.724,440.091 309.724,442.896 C309.724,447.127 309.052,451.201 307.81,455.017 C387.882,445.089 397.854,400.351 394.521,361.974 C394.038,356.42 393.286,350.967 392.421,345.748 L394.747,340.287 L399.639,329.026 C401.525,338.5 403.63,349.482 404.64,361.101 C408.47,405.193 396.895,456.765 302.296,465.836 C301.077,467.517 299.728,469.097 298.263,470.564 C291.184,477.644 281.397,482.025 270.598,482.025 C259.793,482.025 250.012,477.644 242.932,470.564 C241.466,469.097 240.118,467.517 238.898,465.836" id="Fill-18" fill="#1B1038"></path>
        <path d="M238.813,295.004 C229.483,285.673 216.589,279.9 202.348,279.9 C188.106,279.9 175.213,285.673 165.882,295.004 C156.55,304.336 150.778,317.229 150.778,331.47 C150.778,345.711 156.55,358.605 165.882,367.935 C175.213,377.267 188.106,383.039 202.348,383.039 C216.589,383.039 229.483,377.265 238.813,367.935 C248.146,358.605 253.919,345.711 253.919,331.47 C253.919,317.229 248.146,304.336 238.813,295.004 Z M202.348,269.742 C219.394,269.742 234.827,276.652 245.996,287.822 C257.166,298.992 264.077,314.425 264.077,331.47 C264.077,348.514 257.166,363.947 245.996,375.117 C234.827,386.287 219.394,393.199 202.348,393.199 C185.302,393.199 169.869,386.289 158.7,375.117 C147.529,363.947 140.619,348.516 140.619,331.47 C140.619,314.426 147.529,298.992 158.7,287.822 C169.869,276.652 185.302,269.742 202.348,269.742 L202.348,269.742 Z" id="Fill-19" fill="#1B1038"></path>
        <path d="M295.198,287.822 C306.368,276.652 321.802,269.742 338.847,269.742 C355.892,269.742 371.325,276.652 382.495,287.822 C393.665,298.992 400.576,314.425 400.576,331.47 C400.576,348.516 393.665,363.947 382.495,375.117 C371.325,386.289 355.891,393.199 338.847,393.199 C321.802,393.199 306.368,386.287 295.198,375.117 C284.028,363.947 277.117,348.514 277.117,331.47 C277.117,314.425 284.028,298.992 295.198,287.822 Z M338.847,279.9 C324.606,279.9 311.712,285.673 302.38,295.004 C293.05,304.336 287.276,317.229 287.276,331.47 C287.276,345.711 293.05,358.605 302.38,367.935 C311.712,377.265 324.606,383.039 338.847,383.039 C353.088,383.039 365.981,377.267 375.313,367.935 C384.644,358.605 390.417,345.711 390.417,331.47 C390.417,317.229 384.644,304.336 375.313,295.004 C365.981,285.673 353.088,279.9 338.847,279.9 L338.847,279.9 Z" id="Fill-20" fill="#1B1038"></path>
        <path d="M176.804,281.586 C178.747,274.221 179.674,265.295 179.368,254.482 C179.356,254.284 179.354,254.083 179.367,253.879 C179.53,251.086 181.931,248.954 184.724,249.118 L186.613,249.212 L188.499,249.226 C195.409,249.226 202.036,248.088 208.197,245.997 C212.622,244.495 216.815,242.503 220.712,240.088 C217.312,236.761 214.241,233.096 211.556,229.147 C209.989,226.836 210.594,223.69 212.905,222.124 C215.216,220.557 218.362,221.161 219.929,223.472 C223.259,228.369 227.286,232.76 231.869,236.503 C231.999,236.597 232.124,236.698 232.246,236.807 C235.266,239.234 238.521,241.38 241.973,243.209 C250.502,247.726 260.244,250.286 270.599,250.286 C280.952,250.286 290.693,247.726 299.222,243.209 C302.675,241.38 305.929,239.234 308.948,236.807 C309.069,236.698 309.194,236.597 309.325,236.503 C313.908,232.76 317.935,228.369 321.266,223.472 C322.833,221.161 325.979,220.557 328.29,222.124 C330.601,223.69 331.206,226.836 329.639,229.147 C326.952,233.096 323.882,236.762 320.482,240.088 C324.379,242.503 328.572,244.495 332.997,245.997 C339.159,248.088 345.786,249.226 352.695,249.226 L354.581,249.212 L356.471,249.118 C359.265,248.954 361.664,251.086 361.827,253.879 C361.84,254.081 361.839,254.278 361.827,254.474 C361.507,265.771 362.53,275.011 364.655,282.561 L353.325,278.477 C352.272,272.794 351.695,266.454 351.649,259.377 C344.013,259.266 336.647,257.946 329.743,255.601 C323.544,253.496 317.718,250.552 312.401,246.907 C309.716,248.852 306.892,250.616 303.944,252.177 C293.981,257.454 282.631,260.445 270.599,260.445 C258.566,260.445 247.216,257.455 237.251,252.177 C234.304,250.617 231.479,248.852 228.793,246.907 C223.478,250.552 217.651,253.496 211.452,255.601 C204.547,257.946 197.182,259.266 189.544,259.377 C189.504,265.773 189.027,271.567 188.159,276.817 L176.804,281.586" id="Fill-21" fill="#1B1038"></path>
        <path d="M269.04,496.759 C271.85,496.759 274.127,494.482 274.127,491.673 C274.127,488.865 271.85,486.587 269.04,486.587 C266.231,486.587 263.954,488.865 263.954,491.673 C263.954,494.482 266.231,496.759 269.04,496.759 Z M269.04,517.107 C271.85,517.107 274.127,514.828 274.127,512.021 C274.127,509.212 271.85,506.935 269.04,506.935 C266.231,506.935 263.954,509.212 263.954,512.021 C263.954,514.828 266.231,517.107 269.04,517.107 L269.04,517.107 Z" id="Fill-22" fill="#1B1038"></path>
        <path d="M270.598,134.333 C218.178,134.333 165.917,146.145 134.456,169.769 C101.61,194.432 92.13,232.764 131.296,284.924 L135.202,290.126 L129.192,292.642 C121.644,295.803 115.756,300.268 111.994,305.35 C109.038,309.343 107.419,313.698 107.396,318.033 C107.372,322.333 108.92,326.741 112.29,330.901 L113.677,332.492 C115.463,329.371 117.958,326.872 121.206,325.321 C126.205,322.936 132.722,322.982 140.796,326.775 C141.937,311.602 148.565,297.955 158.7,287.821 C164.27,282.252 170.898,277.741 178.259,274.618 C179.189,268.764 179.584,262.089 179.368,254.48 C179.358,254.282 179.355,254.081 179.368,253.878 C179.531,251.084 181.931,248.953 184.725,249.116 L186.614,249.211 L188.5,249.224 C195.41,249.224 202.036,248.087 208.198,245.996 C212.623,244.493 216.817,242.501 220.713,240.086 C217.313,236.76 214.242,233.095 211.557,229.146 C209.989,226.835 210.595,223.689 212.905,222.122 C215.217,220.555 218.362,221.16 219.93,223.471 C223.26,228.368 227.287,232.758 231.87,236.501 L232.247,236.805 C235.267,239.232 238.522,241.379 241.974,243.208 C250.503,247.724 260.245,250.285 270.599,250.285 C280.953,250.285 290.694,247.724 299.223,243.208 C302.675,241.379 305.93,239.232 308.948,236.805 L309.326,236.501 C313.909,232.758 317.936,228.368 321.267,223.471 C322.833,221.16 325.979,220.555 328.29,222.122 C330.602,223.689 331.206,226.835 329.64,229.146 C326.952,233.095 323.883,236.761 320.483,240.086 C324.38,242.501 328.573,244.493 332.998,245.996 C339.159,248.087 345.786,249.224 352.696,249.224 L354.582,249.211 L356.472,249.116 C359.265,248.953 361.665,251.084 361.828,253.878 C361.841,254.079 361.84,254.277 361.828,254.473 C361.612,262.084 362.007,268.761 362.937,274.618 C370.297,277.741 376.927,282.252 382.495,287.821 C392.63,297.955 399.26,311.601 400.4,326.775 C408.474,322.982 414.991,322.936 419.99,325.321 C423.238,326.872 425.731,329.369 427.519,332.492 L428.907,330.901 C432.275,326.741 433.823,322.332 433.8,318.033 C433.776,313.698 432.159,309.343 429.201,305.35 C425.441,300.268 419.553,295.803 412.003,292.642 L405.995,290.126 L409.9,284.924 C449.067,232.763 439.585,194.43 406.74,169.768 C375.278,146.144 323.019,134.333 270.598,134.333" id="Fill-23" fill="#D1D4E3"></path>
        <path d="M303.944,252.178 C293.98,257.454 282.631,260.445 270.599,260.445 C258.567,260.445 247.216,257.456 237.251,252.178 C234.304,250.617 231.478,248.853 228.792,246.908 C223.478,250.552 217.651,253.497 211.453,255.602 C204.548,257.946 197.181,259.266 189.544,259.377 C189.519,263.574 189.304,267.513 188.914,271.207 C193.239,270.247 197.733,269.741 202.347,269.741 C219.394,269.741 234.827,276.652 245.995,287.823 C257.166,298.992 264.077,314.425 264.077,331.47 C264.077,348.514 257.166,363.949 245.995,375.117 C234.827,386.287 219.394,393.199 202.347,393.199 C185.302,393.199 169.87,386.289 158.7,375.117 C153.958,370.377 149.983,364.865 146.979,358.791 C146.869,359.847 146.767,360.91 146.673,361.974 C143.341,400.349 153.313,445.089 233.386,455.019 C232.144,451.201 231.47,447.127 231.47,442.896 C231.47,440.091 233.745,437.816 236.55,437.816 C239.355,437.816 241.63,440.091 241.63,442.896 C241.63,450.894 244.873,458.14 250.113,463.38 C255.355,468.621 262.599,471.865 270.597,471.865 C278.597,471.865 285.841,468.621 291.081,463.38 C296.321,458.14 299.563,450.894 299.563,442.896 C299.563,440.091 301.839,437.816 304.644,437.816 C307.448,437.816 309.724,440.091 309.724,442.896 C309.724,447.127 309.052,451.201 307.811,455.019 C387.882,445.089 397.855,400.349 394.521,361.974 C394.429,360.91 394.327,359.847 394.215,358.791 C391.21,364.865 387.236,370.377 382.494,375.117 C371.325,386.289 355.89,393.199 338.847,393.199 C321.801,393.199 306.368,386.287 295.198,375.117 C284.028,363.949 277.116,348.514 277.116,331.47 C277.116,314.425 284.028,298.992 295.198,287.823 C306.368,276.652 321.801,269.741 338.847,269.741 C343.461,269.741 347.955,270.247 352.28,271.207 C351.892,267.511 351.678,263.574 351.649,259.377 C344.013,259.266 336.648,257.946 329.743,255.602 C323.544,253.497 317.718,250.552 312.401,246.908 C309.716,248.853 306.891,250.617 303.944,252.178" id="Fill-24" fill="#FBD0A1"></path>
        <path d="M338.847,279.9 C324.606,279.9 311.712,285.673 302.38,295.004 C293.05,304.336 287.276,317.229 287.276,331.47 C287.276,345.711 293.05,358.605 302.38,367.935 C311.712,377.265 324.606,383.039 338.847,383.039 C353.088,383.039 365.981,377.267 375.313,367.935 C384.644,358.605 390.417,345.711 390.417,331.47 C390.417,317.229 384.644,304.336 375.313,295.004 C365.981,285.673 353.088,279.9 338.847,279.9" id="Fill-25" fill="#FFFFFF"></path>
        <path d="M253.919,331.47 C253.919,317.229 248.146,304.336 238.813,295.004 C229.483,285.673 216.589,279.9 202.348,279.9 C188.106,279.9 175.213,285.673 165.882,295.004 C156.55,304.336 150.778,317.229 150.778,331.47 C150.778,345.711 156.55,358.605 165.882,367.935 C175.213,377.267 188.106,383.039 202.348,383.039 C216.589,383.039 229.483,377.265 238.813,367.935 C248.146,358.605 253.919,345.711 253.919,331.47" id="Fill-26" fill="#FFFFFF"></path>
        <path d="M401.321,337.727 C402.665,344.994 403.926,352.889 404.64,361.101 C404.733,362.183 404.818,363.269 404.892,364.359 C406.439,363.919 408.073,363.683 409.762,363.683 C412.087,363.683 414.309,364.13 416.345,364.943 C416.887,363.976 417.384,362.966 417.833,361.927 C420.279,356.26 421.313,349.807 420.708,344.316 C420.194,339.658 418.542,335.883 415.625,334.49 C412.644,333.068 407.989,333.734 401.321,337.727" id="Fill-27" fill="#FBD0A1"></path>
        <path d="M136.556,361.101 C137.269,352.889 138.528,344.994 139.872,337.725 C133.206,333.734 128.551,333.066 125.569,334.49 C122.651,335.883 121,339.658 120.487,344.316 C119.883,349.807 120.916,356.26 123.362,361.927 C123.81,362.966 124.307,363.976 124.85,364.943 C126.886,364.13 129.108,363.683 131.434,363.683 C133.122,363.683 134.755,363.919 136.303,364.359 C136.377,363.269 136.461,362.183 136.556,361.101" id="Fill-28" fill="#FBD0A1"></path>
        <path d="M135.937,375.312 C134.675,374.388 133.116,373.843 131.434,373.843 C129.326,373.843 127.417,374.699 126.037,376.078 L125.824,376.277 C124.569,377.628 123.802,379.455 123.802,381.474 C123.802,383.593 124.647,385.502 126.018,386.871 L126.037,386.89 C127.405,388.259 129.313,389.105 131.434,389.105 C133.412,389.105 135.208,388.367 136.55,387.156 C136.143,383.212 135.954,379.255 135.937,375.312" id="Fill-29" fill="#FFFFFF"></path>
        <path d="M405.258,375.312 C405.241,379.253 405.052,383.212 404.645,387.156 C405.987,388.369 407.782,389.105 409.762,389.105 C411.78,389.105 413.607,388.337 414.958,387.084 L415.158,386.871 C416.538,385.492 417.394,383.582 417.394,381.474 C417.394,379.367 416.538,377.457 415.158,376.078 C413.778,374.699 411.868,373.843 409.762,373.843 C408.078,373.843 406.52,374.388 405.258,375.312" id="Fill-30" fill="#FFFFFF"></path>
        <path d="M223.264,458.095 C222.828,462.878 223.109,467.175 224.121,470.767 C225.167,474.482 227.001,477.386 229.626,479.177 C232.293,480.998 235.963,481.794 240.67,481.283 C245.878,480.716 252.192,478.584 259.651,474.552 L266.817,477.867 L269.04,477.384 L269.04,480.877 C258.409,487.25 249.306,490.541 241.741,491.361 C234.497,492.15 228.551,490.714 223.91,487.55 C219.226,484.355 216.05,479.513 214.358,473.507 C212.938,468.462 212.577,462.57 213.257,456.162 L223.264,458.095" id="Fill-31" fill="#1B1038"></path>
        <path d="M314.816,458.095 C315.252,462.878 314.971,467.175 313.958,470.767 C312.913,474.482 311.079,477.386 308.455,479.177 C305.787,480.998 302.118,481.794 297.41,481.283 C292.201,480.716 285.888,478.584 278.429,474.552 L271.263,477.867 L269.04,477.384 L269.04,480.877 C279.671,487.25 288.774,490.541 296.339,491.361 C303.582,492.15 309.529,490.714 314.17,487.55 C318.854,484.355 322.03,479.513 323.722,473.507 C325.142,468.462 325.503,462.57 324.823,456.162 L314.816,458.095" id="Fill-32" fill="#1B1038"></path>
        <path d="M229.626,479.177 C232.293,480.998 235.963,481.794 240.67,481.283 C244.233,480.896 248.313,479.775 252.925,477.816 C249.215,475.933 245.845,473.478 242.932,470.564 C241.466,469.097 240.118,467.517 238.898,465.836 C233.349,465.304 228.085,464.625 223.095,463.812 C223.189,466.339 223.53,468.671 224.121,470.767 C225.167,474.482 227.001,477.386 229.626,479.177" id="Fill-33" fill="#FFFFFF"></path>
        <path d="M243.175,480.904 C246.111,480.343 249.36,479.33 252.925,477.816 C249.215,475.933 245.845,473.478 242.932,470.564 C241.466,469.097 240.118,467.517 238.898,465.836 C234.557,465.419 230.39,464.912 226.391,464.322 C226.528,466.482 226.854,468.492 227.369,470.318 C228.415,474.035 230.249,476.939 232.873,478.73 C235.398,480.453 238.822,481.257 243.175,480.904" id="Fill-34" fill="#FF917D"></path>
        <path d="M298.263,470.564 C294.98,473.847 291.117,476.548 286.841,478.503 C290.767,480.041 294.287,480.943 297.41,481.283 C302.118,481.794 305.787,480.998 308.455,479.177 C311.079,477.386 312.913,474.482 313.958,470.767 C314.511,468.808 314.845,466.64 314.964,464.298 C310.917,464.9 306.696,465.414 302.296,465.836 C301.077,467.517 299.728,469.097 298.263,470.564" id="Fill-35" fill="#FF917D"></path>
        <path d="M326.212,532.353 L316.315,532.353 C315.636,537.88 314.722,543.414 313.596,548.945 C312.16,556.003 310.39,563.031 308.332,570.023 C307.769,571.941 306.169,573.273 304.324,573.595 C278.258,578.076 259.821,578.076 233.756,573.595 C231.911,573.273 230.312,571.941 229.748,570.023 C227.69,563.031 225.919,556.003 224.483,548.945 C223.358,543.414 222.444,537.88 221.765,532.353 L211.868,532.353 C215.66,568.945 229.217,592.851 245.845,604.175 C253.182,609.173 261.125,611.673 269.04,611.673 C276.956,611.673 284.899,609.173 292.236,604.175 C308.862,592.851 322.42,568.945 326.212,532.353" id="Fill-36" fill="#6DE1FF"></path>
        <path d="M142.042,575.711 C133.585,572.832 127.661,565.554 125.068,555.771 C125.003,555.783 124.938,555.793 124.872,555.802 C122.125,556.232 119.411,556.173 116.823,555.689 C118.095,562.32 120.968,567.734 125.144,571.226 C127.008,572.785 129.151,573.972 131.542,574.718 C134.86,575.753 138.466,576.093 142.042,575.711" id="Fill-37" fill="#FFFFFF"></path>
        <path d="M128.808,509.724 C130.047,510.144 131.245,510.664 132.393,511.277 C135.349,505.691 139.093,500.078 143.686,494.586 C151.966,484.683 158.851,477.396 164.537,472.334 C159.3,474.755 150.024,483.5 134.979,501.496 C132.703,504.216 130.649,506.966 128.808,509.724" id="Fill-38" fill="#FFFFFF"></path>
        <path d="M368.258,473.638 C364.923,483.179 369.476,507.587 375.129,532.158 L375.405,533.355 L375.109,534.519 C372.645,544.255 372.831,552.16 374.76,558.343 C376.221,563.019 378.679,566.716 381.719,569.464 C384.757,572.212 388.427,574.062 392.293,575.043 C397.046,576.244 402.054,576.119 406.539,574.718 C408.93,573.972 411.073,572.785 412.938,571.226 C417.113,567.734 419.986,562.32 421.259,555.689 C418.843,556.14 416.319,556.222 413.759,555.882 L413.208,555.802 C406.714,554.789 401.242,551.232 397.649,546.306 C394.061,541.384 392.346,535.095 393.36,528.611 C394.377,522.117 397.934,516.644 402.858,513.052 C404.807,511.63 406.97,510.505 409.273,509.724 C407.433,506.966 405.378,504.216 403.103,501.496 C379.701,473.509 370.263,467.898 368.258,473.638" id="Fill-39" fill="#D1D4E3"></path>
        <path d="M375.405,533.355 L375.109,534.519 C372.645,544.255 372.831,552.16 374.76,558.343 C376.221,563.019 378.679,566.716 381.719,569.464 C384.757,572.212 388.427,574.062 392.293,575.043 C397.046,576.244 402.054,576.119 406.539,574.718 C406.954,574.589 407.36,574.445 407.761,574.291 C405.954,574.349 404.128,574.228 402.322,573.916 C398.392,573.24 394.589,571.679 391.348,569.173 C388.104,566.669 385.366,563.175 383.548,558.627 C381.145,552.611 380.347,544.746 382.05,534.847 L382.254,533.664 L381.886,532.492 C374.345,508.431 367.916,484.453 370.501,474.679 C370.933,473.046 372.007,472.244 373.879,472.496 C370.764,470.945 369.001,471.513 368.258,473.638 C364.923,483.179 369.476,507.587 375.129,532.158 L375.405,533.355" id="Fill-40" fill="#FFFFFF"></path>
        <path d="M221.255,527.769 C220.981,524.986 223.016,522.505 225.798,522.232 C228.581,521.961 231.062,523.994 231.334,526.777 C232.001,533.496 233.04,540.211 234.405,546.921 C235.565,552.625 236.97,558.355 238.589,564.109 C260.292,567.523 277.788,567.523 299.49,564.109 C301.11,558.355 302.515,552.625 303.675,546.921 C305.039,540.211 306.079,533.496 306.746,526.777 C307.02,523.994 309.499,521.961 312.281,522.232 C315.063,522.505 317.099,524.986 316.825,527.769 C316.126,534.824 315.032,541.884 313.596,548.945 C312.16,556.003 310.39,563.031 308.332,570.023 C307.769,571.941 306.169,573.273 304.324,573.595 C278.258,578.076 259.821,578.076 233.756,573.595 C231.911,573.273 230.312,571.941 229.748,570.023 C227.69,563.031 225.919,556.003 224.483,548.945 C223.048,541.884 221.954,534.824 221.255,527.769" id="Fill-41" fill="#1B1038"></path>
        <path d="M234.405,546.921 C235.565,552.625 236.97,558.355 238.589,564.109 C260.292,567.523 277.788,567.523 299.49,564.109 C301.11,558.355 302.515,552.625 303.675,546.921 C304.661,542.068 305.479,537.211 306.108,532.353 L231.972,532.353 C232.601,537.211 233.419,542.068 234.405,546.921" id="Fill-42" fill="#FF917D"></path>
        <path d="M306.108,532.353 L301.397,532.353 C301.087,536.523 300.64,540.701 300.071,544.886 C299.287,550.652 298.261,556.462 297.021,562.31 C287.243,564.513 278.292,565.949 269.371,566.669 C279.061,566.65 288.762,565.796 299.49,564.109 C301.11,558.355 302.515,552.625 303.675,546.921 C304.661,542.068 305.479,537.211 306.108,532.353" id="Fill-43" fill="#FFFFFF"></path>
        <path d="M153.288,294.002 C110.065,246.746 99.152,202.531 152.385,166.1 C184.853,143.879 237.581,134.371 289.95,136.669 C316.747,137.846 343.366,142.109 367.047,149.341 C338.757,139.336 304.711,134.334 270.598,134.334 C218.177,134.334 165.917,146.147 134.455,169.77 C101.61,194.433 92.13,232.766 131.295,284.926 L135.201,290.128 L129.192,292.644 C121.644,295.805 115.755,300.27 111.993,305.352 C109.038,309.345 107.419,313.7 107.396,318.035 C107.372,322.334 108.919,326.742 112.289,330.902 L113.676,332.494 C115.462,329.372 117.958,326.873 121.205,325.323 C121.43,325.216 121.657,325.114 121.888,325.016 C108.209,312.374 132.829,296.197 153.288,294.002" id="Fill-44" fill="#FFFFFF"></path>
        <g id="Group-48" transform="translate(217.000000, 0.000000)">
            <mask id="mask-4" fill="white">
                <use xlink:href="#path-3"></use>
            </mask>
            <g id="Clip-46"></g>
            <path d="M46.11,6.611 C19.694,10.746 1.628,35.515 5.763,61.931 C9.896,88.349 34.667,106.415 61.083,102.279 C87.5,98.146 105.566,73.376 101.432,46.959 C97.297,20.543 72.527,2.476 46.11,6.611" id="Fill-45" fill="#6DE1FF" mask="url(#mask-4)"></path>
            <path d="M10.394,22.94 C18.458,11.88 30.746,3.894 45.337,1.611 C59.915,-0.671 74.047,3.177 85.103,11.241 C96.163,19.308 104.147,31.594 106.432,46.185 L106.511,46.714 C108.619,61.105 104.768,75.028 96.801,85.952 C88.735,97.011 76.449,104.997 61.859,107.28 L61.328,107.359 C46.938,109.467 33.014,105.616 22.091,97.649 C11.031,89.583 3.046,77.297 0.763,62.708 L0.684,62.178 C-1.425,47.786 2.426,33.863 10.394,22.94 Z M46.886,11.611 C35.06,13.462 25.103,19.931 18.567,28.892 C12.029,37.855 8.911,49.321 10.763,61.157 L10.771,61.205 C12.63,73.008 19.095,82.948 28.044,89.475 C37.007,96.013 48.472,99.131 60.308,97.279 L60.398,97.265 C72.185,95.397 82.108,88.937 88.628,79.999 C95.165,71.035 98.283,59.57 96.431,47.735 L96.425,47.69 C94.565,35.884 88.101,25.943 79.15,19.415 C70.187,12.877 58.722,9.759 46.886,11.611 L46.886,11.611 Z" id="Fill-47" fill="#1B1038" mask="url(#mask-4)"></path>
        </g>
        <path d="M308.242,43.092 C312.038,67.345 295.451,90.087 271.198,93.882 C262.842,95.19 254.666,94.078 247.382,91.067 C255.958,96.507 266.478,98.974 277.308,97.279 L277.398,97.265 C289.185,95.397 299.108,88.937 305.628,79.999 C312.165,71.035 315.283,59.57 313.431,47.735 L313.425,47.69 C311.675,36.58 305.847,27.122 297.706,20.605 C303.108,26.734 306.886,34.424 308.242,43.092" id="Fill-49" fill="#FFFFFF"></path>
        <polygon id="Fill-50" fill="#1B1038" points="265.517 128.733 275.677 128.733 275.677 103.808 265.517 103.808"></polygon>
        <path d="M338.848,287.823 C326.794,287.823 315.881,292.71 307.983,300.608 C300.085,308.503 295.198,319.417 295.198,331.47 C295.198,343.524 300.085,354.438 307.983,362.332 C315.881,370.23 326.794,375.117 338.848,375.117 C350.9,375.117 361.812,370.232 369.71,362.332 C377.607,354.438 382.495,343.524 382.495,331.47 C382.495,319.417 377.607,308.503 369.71,300.608 C361.812,292.71 350.9,287.823 338.848,287.823" id="Fill-51" fill="#6DE1FF"></path>
        <path d="M202.347,287.823 C214.399,287.823 225.313,292.71 233.211,300.608 C241.108,308.503 245.995,319.417 245.995,331.47 C245.995,343.524 241.108,354.438 233.211,362.332 C225.313,370.23 214.399,375.117 202.347,375.117 C190.294,375.117 179.382,370.232 171.484,362.332 C163.587,354.438 158.699,343.524 158.699,331.47 C158.699,319.417 163.587,308.503 171.484,300.608 C179.382,292.71 190.294,287.823 202.347,287.823" id="Fill-52" fill="#6DE1FF"></path>
        <polygon id="Fill-53" fill="#1B1038" points="260.44 336.551 282.233 336.551 282.233 326.39 260.44 326.39"></polygon>
        <path d="M256.145,392.343 L285.05,392.343 C289.273,392.343 292.728,395.798 292.728,400.021 L292.728,407.4 C292.728,411.623 289.273,415.078 285.05,415.078 L256.145,415.078 C251.921,415.078 248.467,411.623 248.467,407.4 L248.467,400.021 C248.467,395.798 251.921,392.343 256.145,392.343" id="Fill-54" fill="#FF917D"></path>
        <path d="M285.05,397.472 L256.145,397.472 C255.448,397.472 254.81,397.761 254.347,398.224 C253.884,398.687 253.595,399.326 253.595,400.021 L253.595,407.4 C253.595,408.097 253.884,408.734 254.347,409.197 C254.81,409.66 255.448,409.949 256.145,409.949 L285.05,409.949 C285.747,409.949 286.385,409.66 286.847,409.197 C287.31,408.734 287.599,408.097 287.599,407.4 L287.599,400.021 C287.599,399.326 287.31,398.687 286.847,398.224 C286.385,397.761 285.747,397.472 285.05,397.472 Z M256.145,387.216 L285.05,387.216 C288.576,387.216 291.78,388.656 294.099,390.974 C296.416,393.291 297.855,396.498 297.855,400.021 L297.855,407.4 C297.855,410.925 296.416,414.128 294.099,416.447 C291.78,418.765 288.576,420.205 285.05,420.205 L256.145,420.205 C252.62,420.205 249.414,418.765 247.096,416.447 C244.778,414.128 243.339,410.925 243.339,407.4 L243.339,400.021 C243.339,396.498 244.778,393.291 247.096,390.974 C249.414,388.656 252.62,387.216 256.145,387.216 L256.145,387.216 Z" id="Fill-55" fill="#1B1038"></path>
        <path d="M208.686,331.578 C207.414,334.1 204.337,335.113 201.815,333.842 C199.294,332.57 198.28,329.493 199.552,326.972 C199.909,326.259 199.975,325.499 199.79,324.846 C199.628,324.311 199.29,323.854 198.818,323.615 C198.339,323.375 197.767,323.373 197.239,323.565 C196.608,323.794 196.036,324.294 195.678,325.003 C194.351,327.632 194.14,330.499 194.872,332.998 C195.571,335.383 197.144,337.436 199.413,338.582 C201.688,339.731 204.276,339.777 206.615,338.924 C208.965,338.066 211.072,336.303 212.409,333.83 L212.704,333.248 C214.869,328.786 215.188,323.938 213.946,319.68 C212.729,315.551 210.03,311.975 206.127,309.897 L205.554,309.608 C201.549,307.682 197.054,307.628 192.997,309.108 C188.743,310.658 184.962,313.892 182.669,318.431 C179.405,324.893 178.898,331.963 180.716,338.16 C182.501,344.246 186.54,349.498 192.399,352.457 C198.267,355.42 204.895,355.559 210.856,353.383 C216.921,351.17 222.306,346.57 225.567,340.113 C226.84,337.592 229.917,336.578 232.438,337.85 C234.96,339.121 235.974,342.199 234.702,344.721 C230.223,353.586 222.769,359.925 214.343,362.998 C205.819,366.107 196.294,365.884 187.794,361.591 C179.29,357.296 173.454,349.756 170.899,341.045 C168.378,332.445 169.058,322.69 173.534,313.825 C177.046,306.874 182.896,301.902 189.509,299.493 C196.198,297.054 203.679,297.22 210.364,300.573 L210.437,300.608 C217.143,303.999 221.745,309.94 223.757,316.799 C225.727,323.539 225.206,331.157 221.729,338.08 L221.693,338.152 C219.149,343.188 214.903,346.789 210.103,348.539 C205.202,350.328 199.716,350.195 194.812,347.719 C189.897,345.236 186.527,340.893 185.056,335.881 C183.62,330.983 184.002,325.429 186.544,320.396 C188.12,317.276 190.765,315.039 193.752,313.95 C196.84,312.825 200.315,312.913 203.425,314.481 C206.541,316.057 208.675,318.806 209.602,321.965 C210.492,325.027 210.258,328.467 208.686,331.578" id="Fill-56" fill="#1B1038"></path>
        <path d="M332.509,331.578 C333.78,334.1 336.856,335.113 339.379,333.842 C341.899,332.57 342.914,329.493 341.643,326.972 C341.284,326.259 341.22,325.499 341.403,324.846 C341.566,324.311 341.903,323.854 342.376,323.615 C342.854,323.375 343.427,323.373 343.955,323.565 C344.585,323.794 345.158,324.294 345.517,325.003 C346.844,327.632 347.055,330.499 346.321,332.998 C345.622,335.383 344.05,337.436 341.78,338.582 C339.505,339.731 336.917,339.777 334.579,338.924 C332.229,338.066 330.122,336.303 328.784,333.83 L328.489,333.248 C326.325,328.786 326.005,323.938 327.247,319.68 C328.466,315.551 331.164,311.975 335.067,309.897 L335.64,309.608 C339.646,307.682 344.14,307.628 348.197,309.108 C352.451,310.658 356.231,313.892 358.524,318.431 C361.788,324.893 362.296,331.963 360.478,338.16 C358.693,344.246 354.653,349.498 348.794,352.457 C342.927,355.42 336.3,355.559 330.338,353.383 C324.273,351.17 318.888,346.57 315.626,340.113 C314.354,337.592 311.277,336.578 308.756,337.85 C306.234,339.121 305.22,342.199 306.491,344.721 C310.972,353.586 318.425,359.925 326.851,362.998 C335.374,366.107 344.9,365.884 353.4,361.591 C361.904,357.296 367.739,349.756 370.294,341.045 C372.815,332.445 372.137,322.69 367.659,313.825 C364.147,306.874 358.298,301.902 351.685,299.493 C344.995,297.054 337.516,297.22 330.83,300.573 L330.757,300.608 C324.052,303.999 319.448,309.94 317.437,316.799 C315.468,323.539 315.987,331.157 319.466,338.08 L319.501,338.152 C322.045,343.188 326.291,346.789 331.091,348.539 C335.992,350.328 341.479,350.195 346.383,347.719 C351.297,345.236 354.667,340.893 356.138,335.881 C357.574,330.983 357.192,325.429 354.65,320.396 C353.074,317.276 350.43,315.039 347.442,313.95 C344.354,312.825 340.878,312.913 337.77,314.481 C334.653,316.057 332.52,318.806 331.593,321.965 C330.702,325.027 330.937,328.467 332.509,331.578" id="Fill-57" fill="#1B1038"></path>
        <path d="M265.517,107.691 C255.819,106.773 246.722,103.215 239.091,97.649 C228.031,89.584 220.046,77.296 217.763,62.708 L217.684,62.178 C217.616,61.717 217.555,61.256 217.5,60.797 C166.653,71.295 121.206,96.565 85.85,131.922 C38.569,179.204 9.324,244.524 9.324,316.672 C9.324,388.82 38.569,454.14 85.85,501.421 C91.304,506.877 96.997,512.089 102.915,517.046 C106.469,512.779 111.523,509.728 117.43,508.779 C120.16,504.148 123.407,499.525 127.201,494.988 C159.121,456.81 173.91,454.632 179.386,470.302 C183.471,481.99 178.966,507.587 173.104,533.244 C175.515,543.429 175.417,552.123 173.576,559.339 C185.361,564.056 197.57,567.937 210.13,570.914 C206.057,559.859 203.113,547.002 201.67,532.351 L194.172,532.351 C191.419,532.351 189.178,530.162 189.095,527.427 C187.856,515.148 188.019,502.679 189.448,490.244 C190.714,479.226 192.983,468.195 196.157,457.322 C159.101,444.929 143.548,422.351 138.246,397.902 C136.146,398.779 133.844,399.263 131.433,399.263 C126.56,399.263 122.129,397.285 118.904,394.082 L118.854,394.033 C115.634,390.806 113.644,386.363 113.644,381.474 C113.644,377.714 114.82,374.218 116.83,371.336 C115.78,369.627 114.847,367.816 114.036,365.937 C110.931,358.738 109.625,350.44 110.4,343.274 C108.087,341.357 106.103,339.356 104.432,337.293 C99.504,331.208 97.24,324.586 97.276,317.994 C97.312,311.439 99.628,305.033 103.857,299.319 C107.641,294.208 112.979,289.636 119.581,286.027 C80.317,230.517 91.978,189.014 128.385,161.676 C160.642,137.454 212.844,124.966 265.517,124.211 L265.517,107.691" id="Fill-58" fill="#FF917D"></path>
        <path d="M313.801,85.952 C305.735,97.011 293.448,104.997 278.859,107.279 L278.328,107.359 C277.442,107.489 276.558,107.595 275.677,107.681 L275.677,124.211 C328.351,124.965 380.552,137.454 412.81,161.674 C449.217,189.012 460.878,230.516 421.614,286.026 C428.215,289.635 433.553,294.207 437.336,299.319 C441.566,305.033 443.881,311.44 443.918,317.994 C443.954,324.586 441.689,331.207 436.763,337.293 C435.092,339.356 433.107,341.357 430.795,343.272 C431.569,350.44 430.265,358.738 427.158,365.937 C426.349,367.812 425.42,369.619 424.373,371.324 C426.376,374.203 427.552,377.701 427.552,381.474 C427.552,386.386 425.56,390.834 422.341,394.052 L422.011,394.355 C418.811,397.398 414.495,399.263 409.762,399.263 C407.352,399.263 405.05,398.781 402.949,397.904 C397.513,422.968 381.302,446.07 342.188,458.242 C345.224,468.816 347.401,479.535 348.632,490.244 C350.075,502.8 350.228,515.394 348.948,527.789 C348.681,530.398 346.476,532.341 343.908,532.339 L343.908,532.351 L336.41,532.351 C334.933,547.349 331.882,560.466 327.659,571.697 C340.417,568.853 352.823,565.08 364.805,560.447 C362.681,553.017 362.44,543.955 364.978,533.244 C359.115,507.587 354.609,481.99 358.694,470.302 C364.17,454.632 378.958,456.81 410.88,494.988 C414.673,499.525 417.92,504.148 420.651,508.779 C427.104,509.814 432.539,513.361 436.112,518.261 C436.201,518.382 436.289,518.505 436.375,518.628 C442.978,513.203 449.309,507.459 455.347,501.421 C502.626,454.14 531.871,388.82 531.871,316.672 C531.871,244.523 502.626,179.202 455.347,131.922 C419.992,96.568 374.55,71.298 323.707,60.799 C322.608,70.019 319.122,78.655 313.801,85.952" id="Fill-59" fill="#FF917D"></path>
        <path d="M274.127,491.673 C274.127,494.482 271.85,496.759 269.04,496.759 C266.231,496.759 263.954,494.482 263.954,491.673 C263.954,488.865 266.231,486.587 269.04,486.587 C271.85,486.587 274.127,488.865 274.127,491.673 Z M274.127,512.021 C274.127,514.828 271.85,517.107 269.04,517.107 C266.231,517.107 263.954,514.828 263.954,512.021 C263.954,509.212 266.231,506.935 269.04,506.935 C271.85,506.935 274.127,509.212 274.127,512.021 Z M323.722,473.507 C322.03,479.513 318.854,484.355 314.169,487.55 C309.529,490.714 303.582,492.15 296.339,491.361 C289.243,490.591 280.79,487.646 270.993,482.023 C270.861,482.023 270.729,482.025 270.597,482.025 C269.492,482.025 268.399,481.98 267.317,481.89 C257.423,487.601 248.894,490.586 241.741,491.361 C234.498,492.15 228.55,490.714 223.909,487.55 C219.226,484.355 216.05,479.513 214.358,473.507 C213.372,470.003 212.896,466.093 212.925,461.886 C210.501,461.359 208.149,460.798 205.868,460.201 C202.875,470.478 200.731,480.927 199.527,491.394 C198.341,501.722 198.073,512.041 198.81,522.193 L339.27,522.193 C340.007,512.041 339.739,501.722 338.553,491.394 C337.377,481.175 335.307,470.974 332.423,460.931 C330.072,461.502 327.65,462.037 325.155,462.533 C325.133,466.496 324.656,470.185 323.722,473.507 L323.722,473.507 Z" id="Fill-60" fill="#FFFFFF"></path>
    </g>
</svg>