<?xml version="1.0" encoding="UTF-8"?>
<svg width="582px" height="604px" viewBox="0 0 582 604" version="1.1" xmlns="http://www.w3.org/2000/svg" xmlns:xlink="http://www.w3.org/1999/xlink">
    <title>logo-square</title>
    <defs>
        <polygon id="path-1" points="0.347260734 0.258 73.4131711 0.258 73.4131711 73.3248461 0.347260734 73.3248461"></polygon>
        <polygon id="path-3" points="0 0.551 581.762 0.551 581.762 382 0 382"></polygon>
    </defs>
    <g id="logo-square" stroke="none" stroke-width="1" fill="none" fill-rule="evenodd">
        <path d="M290.878,448.639 C312.793,448.639 330.562,449.653 330.562,450.903 C330.562,452.151 312.793,453.163 290.878,453.163 C268.961,453.163 251.192,452.151 251.192,450.903 C251.192,449.653 268.961,448.639 290.878,448.639" id="Fill-1" fill="#1B1038"></path>
        <path d="M417.08,89.714 C384.783,57.419 340.164,37.443 290.881,37.443 C241.599,37.443 196.98,57.419 164.684,89.714 C132.388,122.011 112.411,166.631 112.411,215.912 C112.411,265.195 132.388,309.815 164.684,342.108 C196.98,374.405 241.599,394.382 290.881,394.382 C340.164,394.382 384.783,374.405 417.08,342.108 C449.373,309.815 469.351,265.195 469.351,215.912 C469.351,166.628 449.373,122.009 417.08,89.714 Z M290.881,31.072 C341.923,31.072 388.137,51.762 421.585,85.21 C455.029,118.658 475.72,164.869 475.72,215.912 C475.72,266.954 455.029,313.167 421.585,346.614 C388.134,380.061 341.923,400.753 290.881,400.753 C239.839,400.753 193.627,380.061 160.18,346.614 C126.732,313.167 106.043,266.954 106.043,215.912 C106.043,164.871 126.732,118.659 160.18,85.21 C193.627,51.762 239.839,31.072 290.881,31.072 L290.881,31.072 Z" id="Fill-2" fill="#1B1038"></path>
        <path d="M207.363,225.792 C208.941,226.862 209.355,229.01 208.285,230.589 C207.215,232.168 205.066,232.581 203.487,231.511 C197.903,227.714 194.125,226.981 191.816,228.083 C189.824,229.035 188.695,231.613 188.343,234.796 C187.932,238.546 188.638,242.955 190.308,246.824 C191.107,248.678 192.131,250.392 193.355,251.808 L187.683,255.863 C186.181,254 184.927,251.857 183.938,249.564 C181.816,244.647 180.925,238.979 181.455,234.082 C179.874,232.774 178.519,231.407 177.377,229.998 C174.012,225.841 172.466,221.317 172.491,216.816 C172.513,212.338 174.096,207.962 176.984,204.06 C179.569,200.567 183.216,197.445 187.726,194.979 C160.905,157.062 168.87,128.712 193.739,110.038 C216.482,92.961 253.738,84.422 290.881,84.422 C328.026,84.422 365.281,92.961 388.023,110.037 C412.892,128.71 420.858,157.061 394.038,194.979 C398.546,197.443 402.192,200.567 404.776,204.06 C407.666,207.962 409.249,212.338 409.273,216.816 C409.296,221.317 407.751,225.841 404.384,229.998 C403.243,231.407 401.888,232.774 400.308,234.082 C400.838,238.977 399.947,244.647 397.825,249.564 C396.924,251.654 395.803,253.619 394.473,255.362 L388.906,251.203 C389.912,249.914 390.765,248.422 391.454,246.824 C393.125,242.955 393.832,238.546 393.417,234.796 C393.066,231.613 391.939,229.035 389.947,228.083 C387.637,226.983 383.859,227.714 378.276,231.511 C376.696,232.581 374.547,232.168 373.476,230.589 C372.408,229.01 372.82,226.862 374.398,225.792 C382.351,220.385 388.507,219.713 392.928,221.821 C395.144,222.881 396.847,224.586 398.07,226.719 C398.405,226.361 398.722,225.998 399.017,225.633 C401.318,222.791 402.377,219.779 402.36,216.843 C402.345,213.883 401.238,210.908 399.22,208.18 C396.651,204.709 392.628,201.659 387.472,199.499 L383.367,197.78 L386.033,194.228 C412.789,158.597 406.312,132.412 383.876,115.566 C362.385,99.429 326.689,91.36 290.881,91.36 C255.074,91.36 219.375,99.431 197.887,115.568 C175.45,132.414 168.974,158.598 195.727,194.228 L198.396,197.78 L194.291,199.499 C189.134,201.659 185.112,204.709 182.542,208.18 C180.524,210.908 179.418,213.883 179.402,216.843 C179.386,219.78 180.442,222.791 182.743,225.633 C183.039,225.997 183.355,226.362 183.691,226.719 C184.912,224.587 186.616,222.881 188.835,221.821 C193.255,219.713 199.411,220.385 207.363,225.792" id="Fill-3" fill="#1B1038"></path>
        <path d="M270.069,418.018 C256.564,408.819 245.717,389.458 243.521,360.024 L243.242,356.3 L336.392,356.3 L336.112,360.024 C333.917,389.458 323.069,408.819 309.565,418.018 C303.359,422.247 296.596,424.358 289.816,424.358 C283.038,424.358 276.275,422.247 270.069,418.018 Z M250.764,363.237 C253.355,388.233 262.615,404.563 273.972,412.3 C278.985,415.714 284.41,417.421 289.816,417.421 C295.225,417.421 300.651,415.714 305.663,412.3 C317.019,404.563 326.28,388.233 328.87,363.237 L250.764,363.237 L250.764,363.237 Z" id="Fill-4" fill="#1B1038"></path>
        <path d="M289.816,363.237 L238.677,363.237 C236.796,363.237 235.266,361.739 235.208,359.874 C234.363,351.487 234.475,342.967 235.45,334.475 C236.449,325.779 238.363,317.071 241.088,308.532 L246.487,310.185 L258.101,312.427 C253.357,312.481 249.512,312.546 247.061,312.625 C244.81,320.07 243.21,327.659 242.334,335.258 C241.524,342.315 241.341,349.362 241.846,356.3 L337.79,356.3 C338.292,349.362 338.11,342.315 337.3,335.258 C336.423,327.659 334.826,320.07 332.575,312.625 L338.96,309.856 C341.468,317.971 343.236,326.226 344.184,334.475 C345.169,343.05 345.276,351.655 344.402,360.122 C344.216,361.901 342.712,363.231 340.958,363.229 L340.958,363.237 L289.816,363.237" id="Fill-5" fill="#1B1038"></path>
        <path d="M355.417,383.051 C353.798,377.86 353.544,371.466 355.351,363.846 C351.343,346.323 348.269,328.837 351.058,320.852 C354.798,310.15 364.902,311.635 386.705,337.716 C392.746,344.94 396.753,352.475 399,359.675 C401.289,367.01 401.759,374.02 400.688,380.03 C399.564,386.333 396.751,391.594 392.554,395.104 C390.585,396.751 388.323,398.003 385.798,398.792 C381.531,400.122 376.796,400.253 372.329,399.122 C368.648,398.188 365.119,396.393 362.15,393.71 C359.18,391.026 356.8,387.481 355.417,383.051 Z M362.271,364.717 C360.587,371.368 360.713,376.766 362.032,380.991 C363.029,384.184 364.71,386.71 366.785,388.587 C368.863,390.464 371.367,391.729 374.009,392.397 C377.255,393.219 380.674,393.133 383.741,392.176 C385.375,391.669 386.836,390.856 388.111,389.79 C391.037,387.344 393.023,383.522 393.858,378.837 C394.744,373.858 394.332,367.969 392.386,361.733 C390.398,355.36 386.813,348.645 381.392,342.161 C365.408,323.042 358.959,319.211 357.591,323.131 C355.314,329.649 358.421,346.319 362.285,363.106 L362.473,363.923 L362.271,364.717 L362.271,364.717 Z" id="Fill-6" fill="#1B1038"></path>
        <path d="M392.784,350.54 C399.77,351.632 404.549,358.184 403.455,365.171 C402.36,372.157 395.809,376.932 388.823,375.842 C381.837,374.747 377.06,368.196 378.152,361.21 C379.248,354.223 385.798,349.448 392.784,350.54" id="Fill-7" fill="#6DE1FF"></path>
        <path d="M398.357,357.678 C396.951,355.749 394.802,354.354 392.254,353.956 C389.7,353.555 387.225,354.227 385.292,355.637 C383.365,357.044 381.966,359.192 381.569,361.739 C381.169,364.294 381.843,366.768 383.25,368.702 C384.653,370.624 386.787,372.012 389.318,372.419 L389.353,372.425 C391.91,372.825 394.384,372.151 396.316,370.745 C398.237,369.344 399.628,367.21 400.035,364.68 L400.039,364.641 C400.438,362.085 399.767,359.612 398.357,357.678 Z M393.314,347.124 C397.749,347.817 401.489,350.249 403.94,353.612 C406.324,356.878 407.495,361.028 406.923,365.325 L406.869,365.7 C406.176,370.135 403.746,373.874 400.382,376.327 C397.116,378.712 392.966,379.882 388.673,379.311 L388.296,379.255 C383.859,378.563 380.121,376.133 377.667,372.77 C375.215,369.405 374.044,365.112 374.739,360.68 C375.433,356.245 377.861,352.508 381.224,350.053 C384.588,347.602 388.882,346.432 393.314,347.124 L393.314,347.124 Z" id="Fill-8" fill="#1B1038"></path>
        <path d="M220.726,363.876 C227.312,389.903 208.326,399.686 194.866,395.485 C179.091,390.561 175.781,363.624 195.587,339.936 C233.377,294.741 228.682,329.301 220.726,363.876" id="Fill-9" fill="#D1D4E3"></path>
        <path d="M217.604,380.991 C218.92,376.766 219.048,371.368 217.364,364.717 L217.164,363.923 L217.352,363.106 C221.213,346.319 224.322,329.649 222.044,323.131 C220.676,319.214 214.227,323.042 198.243,342.161 C192.822,348.645 189.24,355.36 187.249,361.733 C185.304,367.969 184.892,373.858 185.777,378.837 C186.613,383.522 188.601,387.344 191.524,389.79 C192.799,390.856 194.263,391.669 195.896,392.176 C198.959,393.133 202.38,393.219 205.626,392.397 C208.268,391.729 210.775,390.464 212.85,388.587 C214.926,386.71 216.606,384.184 217.604,380.991 Z M224.285,363.846 C226.089,371.466 225.837,377.86 224.217,383.051 C222.834,387.481 220.454,391.026 217.486,393.71 C214.517,396.393 210.99,398.188 207.307,399.122 C202.839,400.253 198.104,400.122 193.836,398.792 C191.313,398.003 189.048,396.751 187.08,395.104 C182.883,391.594 180.071,386.333 178.947,380.03 C177.876,374.02 178.347,367.01 180.635,359.675 C182.88,352.475 186.89,344.94 192.93,337.716 C214.734,311.639 224.835,310.15 228.577,320.852 C231.367,328.837 228.289,346.323 224.285,363.846 L224.285,363.846 Z" id="Fill-10" fill="#1B1038"></path>
        <path d="M186.852,350.54 C179.865,351.632 175.088,358.184 176.181,365.171 C177.273,372.157 183.825,376.932 190.811,375.842 C197.797,374.747 202.575,368.196 201.481,361.21 C200.388,354.223 193.837,349.448 186.852,350.54" id="Fill-11" fill="#6DE1FF"></path>
        <path d="M175.694,353.612 C178.148,350.249 181.886,347.817 186.323,347.124 C190.752,346.432 195.047,347.602 198.409,350.053 C201.774,352.508 204.204,356.245 204.896,360.68 C205.591,365.112 204.42,369.405 201.967,372.77 C199.513,376.133 195.777,378.563 191.339,379.255 C186.91,379.95 182.614,378.778 179.253,376.327 C175.89,373.874 173.459,370.135 172.765,365.698 C172.071,361.268 173.241,356.975 175.694,353.612 Z M187.381,353.956 C184.833,354.354 182.686,355.749 181.278,357.678 C179.868,359.612 179.196,362.085 179.596,364.641 C179.995,367.19 181.39,369.335 183.32,370.745 C185.252,372.155 187.726,372.825 190.283,372.425 C192.83,372.028 194.977,370.633 196.385,368.702 C197.794,366.768 198.467,364.294 198.066,361.739 C197.669,359.192 196.273,357.046 194.342,355.637 C192.41,354.227 189.936,353.555 187.381,353.956 L187.381,353.956 Z" id="Fill-12" fill="#1B1038"></path>
        <path d="M187.229,251.584 C189.426,249.387 192.466,248.025 195.821,248.025 C198.419,248.025 200.827,248.841 202.803,250.231 L202.2,259.681 L204.223,268.942 C202.032,271.04 199.071,272.329 195.821,272.329 C192.493,272.329 189.465,270.977 187.264,268.789 L187.229,268.757 C185.03,266.551 183.669,263.516 183.669,260.177 C183.669,256.943 184.944,253.996 187.023,251.809 L187.229,251.584 Z M195.821,254.964 C194.382,254.964 193.079,255.55 192.135,256.491 L191.991,256.628 C191.133,257.55 190.608,258.799 190.608,260.177 C190.608,261.627 191.186,262.929 192.122,263.863 L192.135,263.876 C193.069,264.812 194.373,265.39 195.821,265.39 C197.269,265.39 198.574,264.811 199.507,263.876 L199.507,263.863 C200.45,262.921 201.034,261.616 201.034,260.177 C201.034,258.738 200.45,257.433 199.507,256.491 C198.565,255.55 197.26,254.964 195.821,254.964 L195.821,254.964 Z" id="Fill-13" fill="#1B1038"></path>
        <path d="M389.626,256.491 C388.685,255.55 387.38,254.964 385.942,254.964 C384.503,254.964 383.197,255.55 382.255,256.491 L382.243,256.491 C381.307,257.424 380.728,258.729 380.728,260.177 C380.728,261.627 381.307,262.929 382.243,263.863 L382.255,263.876 C383.191,264.812 384.492,265.39 385.942,265.39 C387.32,265.39 388.57,264.866 389.491,264.007 L389.626,263.863 C390.571,262.921 391.154,261.616 391.154,260.177 C391.154,258.738 390.571,257.433 389.626,256.491 Z M385.942,248.025 C389.296,248.025 392.333,249.387 394.532,251.584 C396.733,253.784 398.093,256.821 398.093,260.177 C398.093,263.532 396.733,266.571 394.532,268.769 L394.308,268.975 C392.122,271.054 389.176,272.329 385.942,272.329 C382.738,272.329 379.815,271.079 377.638,269.036 L380.221,258.15 L378.947,250.238 C380.924,248.844 383.337,248.025 385.942,248.025 L385.942,248.025 Z" id="Fill-14" fill="#1B1038"></path>
        <path d="M269.229,317.801 C204.611,311.606 196.704,276.379 199.32,246.262 C200.062,237.727 201.667,229.699 203.023,222.91 C203.539,220.326 204.02,217.921 204.382,215.855 C204.686,214.107 206.252,212.894 207.98,212.988 L204.885,226.921 L207.273,238.258 C206.849,241.055 206.486,243.936 206.231,246.858 C203.955,273.071 210.766,303.632 265.462,310.412 C264.614,307.807 264.155,305.024 264.155,302.133 C264.155,300.217 265.709,298.665 267.625,298.665 C269.541,298.665 271.094,300.217 271.094,302.133 C271.094,307.598 273.31,312.546 276.89,316.127 C280.47,319.706 285.417,321.921 290.881,321.921 C296.346,321.921 301.293,319.706 304.872,316.127 C308.453,312.546 310.668,307.598 310.668,302.133 C310.668,300.217 312.223,298.665 314.138,298.665 C316.054,298.665 317.608,300.217 317.608,302.133 C317.608,305.024 317.149,307.807 316.298,310.412 C370.996,303.632 377.808,273.071 375.531,246.858 C375.201,243.062 374.686,239.338 374.097,235.773 L375.687,232.043 L379.027,224.35 C380.316,230.823 381.754,238.324 382.443,246.262 C385.059,276.379 377.152,311.606 312.534,317.801 C311.702,318.952 310.781,320.032 309.78,321.032 C304.942,325.868 298.259,328.86 290.881,328.86 C283.501,328.86 276.819,325.868 271.983,321.032 C270.982,320.032 270.062,318.952 269.229,317.801" id="Fill-15" fill="#1B1038"></path>
        <path d="M269.171,201.112 C262.797,194.738 253.988,190.794 244.261,190.794 C234.533,190.794 225.726,194.738 219.353,201.112 C212.978,207.486 209.036,216.293 209.036,226.02 C209.036,235.748 212.978,244.555 219.353,250.929 C225.726,257.303 234.533,261.247 244.261,261.247 C253.988,261.247 262.797,257.303 269.171,250.929 C275.544,244.555 279.489,235.748 279.489,226.02 C279.489,216.293 275.544,207.486 269.171,201.112 Z M244.261,183.855 C255.905,183.855 266.448,188.576 274.077,196.206 C281.706,203.836 286.428,214.377 286.428,226.02 C286.428,237.663 281.706,248.206 274.077,255.835 C266.448,263.466 255.905,268.186 244.261,268.186 C232.618,268.186 222.077,263.466 214.446,255.835 C206.815,248.206 202.095,237.663 202.095,226.02 C202.095,214.379 206.815,203.836 214.446,196.206 C222.077,188.576 232.618,183.855 244.261,183.855 L244.261,183.855 Z" id="Fill-16" fill="#1B1038"></path>
        <path d="M307.684,196.206 C315.315,188.576 325.856,183.855 337.501,183.855 C349.142,183.855 359.687,188.576 367.318,196.206 C374.945,203.836 379.666,214.377 379.666,226.02 C379.666,237.663 374.945,248.206 367.318,255.835 C359.687,263.466 349.142,268.186 337.501,268.186 C325.856,268.186 315.315,263.466 307.684,255.835 C300.054,248.206 295.334,237.663 295.334,226.02 C295.334,214.377 300.054,203.836 307.684,196.206 Z M337.501,190.794 C327.772,190.794 318.964,194.738 312.59,201.112 C306.216,207.486 302.276,216.293 302.276,226.02 C302.276,235.748 306.216,244.555 312.59,250.929 C318.964,257.303 327.772,261.247 337.501,261.247 C347.226,261.247 356.035,257.303 362.409,250.929 C368.783,244.555 372.726,235.748 372.726,226.02 C372.726,216.293 368.783,207.486 362.409,201.112 C356.035,194.738 347.226,190.794 337.501,190.794 L337.501,190.794 Z" id="Fill-17" fill="#1B1038"></path>
        <path d="M226.813,191.946 C228.142,186.915 228.774,180.818 228.564,173.431 C228.557,173.296 228.557,173.158 228.564,173.02 C228.676,171.111 230.315,169.656 232.223,169.768 L233.514,169.833 L234.801,169.841 C239.521,169.841 244.049,169.065 248.257,167.636 C251.281,166.61 254.144,165.249 256.806,163.6 C254.484,161.328 252.386,158.823 250.551,156.127 C249.481,154.548 249.893,152.398 251.473,151.328 C253.052,150.257 255.2,150.672 256.27,152.249 C258.545,155.595 261.296,158.594 264.427,161.152 C264.516,161.215 264.601,161.284 264.685,161.358 C266.746,163.016 268.971,164.483 271.328,165.732 C277.155,168.817 283.81,170.565 290.881,170.565 C297.953,170.565 304.606,168.817 310.433,165.732 C312.793,164.483 315.015,163.016 317.079,161.358 C317.161,161.284 317.246,161.215 317.336,161.152 C320.465,158.594 323.217,155.595 325.492,152.249 C326.563,150.672 328.711,150.257 330.289,151.328 C331.869,152.398 332.281,154.548 331.212,156.127 C329.376,158.823 327.278,161.328 324.956,163.6 C327.616,165.249 330.482,166.61 333.505,167.636 C337.712,169.065 342.239,169.841 346.962,169.841 L348.248,169.833 L349.541,169.768 C351.447,169.656 353.085,171.111 353.198,173.02 C353.207,173.158 353.207,173.293 353.198,173.427 C352.98,181.143 353.68,187.454 355.13,192.612 L347.392,189.823 C346.67,185.94 346.277,181.61 346.248,176.775 C341.029,176.699 336,175.798 331.283,174.196 C327.048,172.758 323.069,170.748 319.435,168.258 C317.602,169.587 315.671,170.792 313.659,171.857 C306.855,175.462 299.101,177.505 290.881,177.505 C282.662,177.505 274.91,175.462 268.103,171.857 C266.09,170.792 264.16,169.587 262.325,168.258 C258.695,170.748 254.715,172.758 250.48,174.196 C245.763,175.798 240.732,176.699 235.516,176.775 C235.488,181.145 235.163,185.103 234.57,188.688 L226.813,191.946" id="Fill-18" fill="#1B1038"></path>
        <path d="M290.881,338.925 C292.8,338.925 294.357,337.37 294.357,335.452 C294.357,333.534 292.8,331.977 290.881,331.977 C288.963,331.977 287.408,333.534 287.408,335.452 C287.408,337.37 288.963,338.925 290.881,338.925" id="Fill-19" fill="#1B1038"></path>
        <path d="M290.881,352.823 C292.8,352.823 294.357,351.266 294.357,349.348 C294.357,347.428 292.8,345.876 290.881,345.876 C288.963,345.876 287.408,347.428 287.408,349.348 C287.408,351.266 288.963,352.823 290.881,352.823" id="Fill-20" fill="#1B1038"></path>
        <path d="M290.881,91.36 C255.074,91.36 219.375,99.431 197.887,115.568 C175.45,132.414 168.974,158.598 195.727,194.228 L198.396,197.78 L194.291,199.499 C189.134,201.659 185.112,204.709 182.542,208.18 C180.524,210.908 179.418,213.883 179.402,216.843 C179.386,219.78 180.442,222.791 182.743,225.633 L183.691,226.719 C184.912,224.587 186.616,222.881 188.835,221.821 C192.249,220.192 196.701,220.223 202.216,222.814 C202.996,212.45 207.523,203.129 214.446,196.206 C218.251,192.401 222.778,189.32 227.806,187.188 C228.442,183.188 228.711,178.629 228.564,173.431 C228.557,173.296 228.557,173.158 228.564,173.02 C228.676,171.111 230.315,169.656 232.223,169.768 L233.514,169.833 L234.801,169.841 C239.521,169.841 244.049,169.065 248.257,167.636 C251.281,166.61 254.144,165.249 256.806,163.6 C254.484,161.328 252.386,158.823 250.551,156.127 C249.481,154.548 249.893,152.398 251.473,151.328 C253.052,150.257 255.2,150.672 256.27,152.249 C258.545,155.595 261.296,158.594 264.427,161.152 L264.685,161.358 C266.746,163.016 268.971,164.483 271.328,165.732 C277.155,168.817 283.81,170.565 290.881,170.565 C297.953,170.565 304.606,168.817 310.433,165.732 C312.793,164.483 315.015,163.016 317.079,161.358 L317.336,161.152 C320.465,158.594 323.217,155.595 325.492,152.249 C326.563,150.672 328.711,150.257 330.289,151.328 C331.869,152.398 332.281,154.548 331.212,156.127 C329.376,158.823 327.278,161.328 324.956,163.6 C327.616,165.249 330.482,166.61 333.505,167.636 C337.712,169.065 342.239,169.841 346.962,169.841 L348.248,169.833 L349.541,169.768 C351.447,169.656 353.085,171.111 353.198,173.02 C353.207,173.158 353.207,173.293 353.198,173.427 C353.05,178.626 353.322,183.187 353.957,187.188 C358.984,189.32 363.512,192.401 367.318,196.206 C374.238,203.129 378.767,212.45 379.547,222.814 C385.062,220.223 389.511,220.192 392.928,221.821 C395.144,222.881 396.847,224.586 398.07,226.719 L399.017,225.633 C401.318,222.791 402.377,219.779 402.36,216.843 C402.345,213.883 401.238,210.908 399.22,208.18 C396.651,204.709 392.628,201.659 387.472,199.499 L383.367,197.78 L386.033,194.228 C412.789,158.597 406.312,132.412 383.876,115.566 C362.385,99.429 326.689,91.36 290.881,91.36" id="Fill-21" fill="#D1D4E3"></path>
        <path d="M278.095,265.502 L303.668,265.502 C305.583,265.502 307.137,267.056 307.137,268.973 C307.137,273.461 305.316,277.527 302.376,280.466 C299.433,283.409 295.369,285.229 290.881,285.229 C286.409,285.229 282.348,283.409 279.4,280.466 L279.375,280.443 C276.44,277.495 274.625,273.439 274.625,268.973 C274.625,267.056 276.179,265.502 278.095,265.502 Z M313.659,171.857 C306.855,175.462 299.101,177.505 290.881,177.505 C282.662,177.505 274.91,175.462 268.103,171.857 C266.09,170.792 264.16,169.587 262.325,168.258 C258.695,170.748 254.715,172.758 250.48,174.196 C245.763,175.798 240.732,176.699 235.516,176.775 C235.499,179.642 235.352,182.333 235.085,184.856 C238.04,184.2 241.109,183.855 244.261,183.855 C255.905,183.855 266.448,188.576 274.077,196.206 C281.706,203.836 286.428,214.377 286.428,226.02 C286.428,237.663 281.706,248.206 274.077,255.835 C266.448,263.466 255.905,268.186 244.261,268.186 C232.618,268.186 222.077,263.466 214.446,255.835 C211.208,252.597 208.493,248.833 206.441,244.682 C206.365,245.404 206.294,246.13 206.231,246.858 C203.955,273.071 210.766,303.632 265.462,310.412 C264.614,307.807 264.155,305.024 264.155,302.133 C264.155,300.217 265.709,298.665 267.625,298.665 C269.541,298.665 271.094,300.217 271.094,302.133 C271.094,307.598 273.31,312.546 276.89,316.127 C280.47,319.706 285.417,321.921 290.881,321.921 C296.346,321.921 301.293,319.706 304.872,316.127 C308.453,312.546 310.668,307.598 310.668,302.133 C310.668,300.217 312.223,298.665 314.138,298.665 C316.054,298.665 317.608,300.217 317.608,302.133 C317.608,305.024 317.149,307.807 316.298,310.412 C370.996,303.632 377.808,273.071 375.531,246.858 C375.468,246.13 375.398,245.404 375.322,244.682 C373.267,248.833 370.554,252.597 367.318,255.835 C359.687,263.466 349.142,268.186 337.501,268.186 C325.856,268.186 315.315,263.466 307.684,255.835 C300.054,248.206 295.334,237.663 295.334,226.02 C295.334,214.377 300.054,203.836 307.684,196.206 C315.315,188.576 325.856,183.855 337.501,183.855 C340.653,183.855 343.722,184.2 346.677,184.856 C346.412,182.332 346.265,179.642 346.248,176.775 C341.029,176.699 336,175.798 331.283,174.196 C327.048,172.758 323.069,170.748 319.435,168.258 C317.602,169.587 315.671,170.792 313.659,171.857 L313.659,171.857 Z" id="Fill-22" fill="#FBD0A1"></path>
        <path d="M337.501,190.794 C327.772,190.794 318.964,194.738 312.59,201.112 C306.216,207.486 302.276,216.293 302.276,226.02 C302.276,235.748 306.216,244.555 312.59,250.929 C318.964,257.303 327.772,261.247 337.501,261.247 C347.226,261.247 356.035,257.303 362.409,250.929 C368.783,244.555 372.726,235.748 372.726,226.02 C372.726,216.293 368.783,207.486 362.409,201.112 C356.035,194.738 347.226,190.794 337.501,190.794" id="Fill-23" fill="#FFFFFF"></path>
        <path d="M279.489,226.02 C279.489,216.293 275.544,207.486 269.171,201.112 C262.797,194.738 253.988,190.794 244.261,190.794 C234.533,190.794 225.726,194.738 219.353,201.112 C212.978,207.486 209.036,216.293 209.036,226.02 C209.036,235.748 212.978,244.555 219.353,250.929 C225.726,257.303 234.533,261.247 244.261,261.247 C253.988,261.247 262.797,257.303 269.171,250.929 C275.544,244.555 279.489,235.748 279.489,226.02" id="Fill-24" fill="#FFFFFF"></path>
        <path d="M289.754,272.443 L282.227,272.443 C282.698,273.623 283.401,274.682 284.279,275.561 L284.292,275.574 C285.97,277.251 288.299,278.288 290.881,278.288 C293.454,278.288 295.784,277.247 297.47,275.561 C298.35,274.679 299.057,273.62 299.53,272.443 L289.754,272.443 Z M278.095,265.502 L303.668,265.502 C305.583,265.502 307.137,267.056 307.137,268.973 C307.137,273.461 305.316,277.527 302.376,280.466 C299.433,283.409 295.369,285.229 290.881,285.229 C286.409,285.229 282.348,283.409 279.4,280.466 L279.375,280.443 C276.44,277.495 274.625,273.439 274.625,268.973 C274.625,267.056 276.179,265.502 278.095,265.502 L278.095,265.502 Z" id="Fill-25" fill="#1B1038"></path>
        <path d="M299.53,272.443 L282.227,272.443 C282.698,273.623 283.401,274.682 284.279,275.561 L284.292,275.574 C285.97,277.251 288.299,278.288 290.881,278.288 C293.454,278.288 295.784,277.247 297.47,275.561 C298.35,274.679 299.057,273.62 299.53,272.443" id="Fill-26" fill="#FF917D"></path>
        <path d="M380.177,230.295 C381.092,235.259 381.955,240.651 382.443,246.262 C382.507,247.001 382.564,247.742 382.614,248.487 C383.669,248.185 384.789,248.025 385.942,248.025 C387.529,248.025 389.046,248.331 390.439,248.884 C390.806,248.225 391.148,247.535 391.454,246.824 C393.125,242.955 393.832,238.546 393.417,234.796 C393.066,231.613 391.939,229.035 389.947,228.083 C387.911,227.112 384.73,227.567 380.177,230.295" id="Fill-27" fill="#FBD0A1"></path>
        <path d="M199.32,246.262 C199.807,240.651 200.668,235.258 201.586,230.293 C197.032,227.567 193.853,227.111 191.816,228.083 C189.824,229.035 188.695,231.613 188.343,234.796 C187.932,238.546 188.638,242.955 190.308,246.824 C190.614,247.535 190.954,248.225 191.325,248.884 C192.716,248.331 194.232,248.025 195.821,248.025 C196.975,248.025 198.09,248.185 199.148,248.487 C199.198,247.742 199.255,247.001 199.32,246.262" id="Fill-28" fill="#FBD0A1"></path>
        <path d="M198.898,255.969 C198.036,255.338 196.972,254.964 195.821,254.964 C194.382,254.964 193.079,255.55 192.135,256.491 L191.991,256.628 C191.133,257.55 190.608,258.799 190.608,260.177 C190.608,261.627 191.186,262.929 192.122,263.863 L192.135,263.876 C193.069,264.812 194.373,265.39 195.821,265.39 C197.173,265.39 198.399,264.885 199.317,264.059 C199.039,261.364 198.91,258.662 198.898,255.969" id="Fill-29" fill="#6DE1FF"></path>
        <path d="M382.864,255.969 C382.852,258.66 382.726,261.364 382.446,264.059 C383.365,264.887 384.588,265.39 385.942,265.39 C387.32,265.39 388.57,264.866 389.491,264.007 L389.626,263.863 C390.571,262.921 391.154,261.616 391.154,260.177 C391.154,258.738 390.571,257.433 389.626,256.491 C388.685,255.55 387.38,254.964 385.942,254.964 C384.792,254.964 383.726,255.338 382.864,255.969" id="Fill-30" fill="#6DE1FF"></path>
        <path d="M258.548,312.516 C258.25,315.782 258.443,318.716 259.135,321.171 C259.849,323.708 261.101,325.69 262.894,326.915 C264.716,328.157 267.223,328.702 270.438,328.354 C273.996,327.966 278.31,326.508 283.404,323.758 L288.299,326.02 L289.816,325.688 L289.816,328.075 C282.557,332.43 276.337,334.675 271.169,335.237 C266.223,335.776 262.16,334.796 258.991,332.633 C255.791,330.45 253.622,327.144 252.465,323.042 C251.496,319.596 251.248,315.573 251.713,311.194 L258.548,312.516" id="Fill-31" fill="#1B1038"></path>
        <path d="M321.086,312.516 C321.383,315.782 321.192,318.716 320.5,321.171 C319.786,323.708 318.532,325.69 316.74,326.915 C314.918,328.157 312.411,328.702 309.198,328.354 C305.639,327.966 301.325,326.508 296.231,323.758 L291.334,326.02 L289.816,325.688 L289.816,328.075 C297.079,332.43 303.297,334.675 308.464,335.237 C313.411,335.776 317.475,334.796 320.645,332.633 C323.844,330.45 326.012,327.144 327.168,323.042 C328.14,319.596 328.387,315.573 327.922,311.194 L321.086,312.516" id="Fill-32" fill="#1B1038"></path>
        <path d="M262.894,326.915 C264.716,328.157 267.223,328.702 270.438,328.354 C272.873,328.089 275.66,327.325 278.81,325.985 C276.275,324.699 273.972,323.022 271.983,321.032 C270.982,320.032 270.062,318.952 269.229,317.801 C265.437,317.439 261.842,316.977 258.433,316.421 C258.498,318.149 258.731,319.741 259.135,321.171 C259.849,323.708 261.101,325.69 262.894,326.915" id="Fill-33" fill="#FFFFFF"></path>
        <path d="M272.149,328.094 C274.155,327.712 276.374,327.018 278.81,325.985 C276.275,324.699 273.972,323.022 271.983,321.032 C270.982,320.032 270.062,318.952 269.229,317.801 C266.262,317.518 263.417,317.172 260.684,316.768 C260.778,318.245 261,319.617 261.352,320.864 C262.067,323.401 263.319,325.384 265.113,326.609 C266.837,327.786 269.176,328.337 272.149,328.094" id="Fill-34" fill="#FF917D"></path>
        <path d="M309.78,321.032 C307.538,323.274 304.898,325.12 301.976,326.456 C304.66,327.503 307.064,328.122 309.198,328.354 C312.411,328.702 314.918,328.157 316.74,326.915 C318.532,325.69 319.786,323.708 320.5,321.171 C320.877,319.832 321.104,318.351 321.186,316.754 C318.422,317.163 315.54,317.516 312.534,317.801 C311.702,318.952 310.781,320.032 309.78,321.032" id="Fill-35" fill="#FF917D"></path>
        <path d="M293.292,349.348 C293.292,351.266 291.735,352.823 289.816,352.823 C287.897,352.823 286.342,351.266 286.342,349.348 C286.342,347.428 287.897,345.876 289.816,345.876 C291.735,345.876 293.292,347.428 293.292,349.348 Z M293.292,335.452 C293.292,337.37 291.735,338.925 289.816,338.925 C287.897,338.925 286.342,337.37 286.342,335.452 C286.342,333.534 287.897,331.977 289.816,331.977 C291.735,331.977 293.292,333.534 293.292,335.452 Z M320.645,332.633 C317.475,334.796 313.411,335.776 308.464,335.237 C303.618,334.71 297.844,332.7 291.152,328.858 C291.061,328.86 290.97,328.86 290.881,328.86 C290.126,328.86 289.379,328.827 288.641,328.768 C281.882,332.669 276.056,334.708 271.169,335.237 C266.223,335.776 262.16,334.796 258.991,332.633 C255.791,330.45 253.622,327.144 252.465,323.042 C251.791,320.649 251.467,317.977 251.486,315.106 C249.83,314.747 248.225,314.361 246.667,313.955 C244.621,320.973 243.157,328.11 242.334,335.258 C241.524,342.315 241.341,349.362 241.846,356.3 L337.79,356.3 C338.292,349.362 338.11,342.315 337.3,335.258 C336.498,328.28 335.082,321.311 333.113,314.452 C331.506,314.841 329.853,315.209 328.149,315.548 C328.131,318.255 327.807,320.773 327.168,323.042 C326.012,327.144 323.844,330.45 320.645,332.633 L320.645,332.633 Z" id="Fill-36" fill="#FFFFFF"></path>
        <path d="M328.87,363.237 L322.11,363.237 C321.645,367.012 321.022,370.792 320.253,374.573 C319.274,379.393 318.061,384.194 316.657,388.969 C316.272,390.278 315.18,391.188 313.917,391.409 C296.114,394.471 283.52,394.471 265.716,391.409 C264.456,391.188 263.362,390.278 262.978,388.969 C261.571,384.194 260.362,379.393 259.382,374.573 C258.614,370.792 257.989,367.012 257.523,363.237 L250.764,363.237 C253.355,388.233 262.615,404.563 273.972,412.3 C278.985,415.714 284.41,417.421 289.816,417.421 C295.225,417.421 300.651,415.714 305.663,412.3 C317.019,404.563 326.28,388.233 328.87,363.237" id="Fill-37" fill="#6DE1FF"></path>
        <path d="M203.069,392.856 C197.291,390.887 193.245,385.917 191.473,379.235 C191.429,379.243 191.383,379.249 191.339,379.255 C189.463,379.55 187.609,379.508 185.841,379.176 C186.71,383.708 188.673,387.407 191.524,389.79 C192.799,390.856 194.263,391.669 195.896,392.176 C198.164,392.883 200.625,393.116 203.069,392.856" id="Fill-38" fill="#FFFFFF"></path>
        <path d="M194.027,347.78 C194.874,348.067 195.693,348.425 196.478,348.842 C198.496,345.024 201.053,341.194 204.19,337.442 C209.846,330.676 214.549,325.696 218.433,322.239 C214.856,323.895 208.521,329.866 198.243,342.161 C196.689,344.018 195.286,345.895 194.027,347.78" id="Fill-39" fill="#FFFFFF"></path>
        <path d="M357.591,323.131 C355.314,329.649 358.421,346.319 362.285,363.106 L362.473,363.923 L362.271,364.717 C360.587,371.368 360.713,376.766 362.032,380.991 C363.029,384.184 364.71,386.71 366.785,388.587 C368.863,390.464 371.367,391.729 374.009,392.397 C377.255,393.219 380.674,393.133 383.741,392.176 C385.375,391.669 386.836,390.856 388.111,389.79 C390.962,387.407 392.925,383.708 393.793,379.176 C392.142,379.487 390.421,379.544 388.673,379.311 L388.296,379.255 C383.859,378.563 380.121,376.133 377.667,372.77 C375.215,369.405 374.044,365.112 374.739,360.68 C375.433,356.245 377.861,352.508 381.224,350.053 C382.558,349.083 384.033,348.315 385.607,347.78 C384.35,345.895 382.947,344.018 381.392,342.161 C365.408,323.042 358.959,319.211 357.591,323.131" id="Fill-40" fill="#D1D4E3"></path>
        <path d="M362.473,363.923 L362.271,364.717 C360.587,371.368 360.713,376.766 362.032,380.991 C363.029,384.184 364.71,386.71 366.785,388.587 C368.863,390.464 371.367,391.729 374.009,392.397 C377.255,393.219 380.674,393.133 383.741,392.176 C384.023,392.089 384.3,391.989 384.574,391.883 C383.34,391.925 382.093,391.841 380.86,391.63 C378.175,391.167 375.578,390.098 373.362,388.389 C371.148,386.68 369.277,384.294 368.035,381.186 C366.393,377.075 365.849,371.702 367.011,364.942 L367.152,364.132 L366.9,363.333 C361.75,346.899 357.356,330.516 359.125,323.842 C359.419,322.727 360.152,322.176 361.431,322.35 C359.3,321.292 358.097,321.68 357.591,323.131 C355.314,329.649 358.421,346.319 362.285,363.106 L362.473,363.923" id="Fill-41" fill="#FFFFFF"></path>
        <path d="M257.176,360.106 C256.99,358.206 258.378,356.512 260.28,356.325 C262.181,356.137 263.874,357.528 264.061,359.43 C264.517,364.018 265.227,368.606 266.159,373.19 C266.952,377.087 267.91,381.001 269.017,384.928 C283.842,387.262 295.793,387.262 310.616,384.928 C311.725,381.001 312.682,377.087 313.476,373.19 C314.407,368.606 315.118,364.018 315.575,359.43 C315.76,357.528 317.455,356.137 319.356,356.325 C321.256,356.512 322.646,358.206 322.458,360.106 C321.981,364.925 321.233,369.747 320.253,374.573 C319.274,379.393 318.061,384.194 316.657,388.969 C316.272,390.278 315.18,391.188 313.917,391.409 C296.114,394.471 283.52,394.471 265.716,391.409 C264.456,391.188 263.362,390.278 262.978,388.969 C261.571,384.194 260.362,379.393 259.382,374.573 C258.4,369.747 257.655,364.925 257.176,360.106" id="Fill-42" fill="#1B1038"></path>
        <path d="M266.159,373.19 C266.952,377.087 267.91,381.001 269.017,384.928 C283.842,387.262 295.793,387.262 310.616,384.928 C311.725,381.001 312.682,377.087 313.476,373.19 C314.15,369.874 314.709,366.557 315.139,363.237 L264.497,363.237 C264.926,366.557 265.485,369.874 266.159,373.19" id="Fill-43" fill="#FF917D"></path>
        <path d="M315.139,363.237 L311.919,363.237 C311.708,366.087 311.401,368.94 311.016,371.798 C310.477,375.739 309.777,379.706 308.93,383.702 C302.252,385.206 296.137,386.186 290.043,386.676 C296.661,386.665 303.288,386.083 310.616,384.928 C311.725,381.001 312.682,377.087 313.476,373.19 C314.15,369.874 314.709,366.557 315.139,363.237" id="Fill-44" fill="#FFFFFF"></path>
        <path d="M210.75,200.427 C181.225,168.146 173.771,137.945 210.133,113.061 C232.31,97.882 268.328,91.385 304.101,92.957 C322.405,93.76 340.587,96.672 356.764,101.613 C337.439,94.779 314.182,91.36 290.881,91.36 C255.074,91.36 219.375,99.431 197.887,115.568 C175.45,132.414 168.974,158.598 195.727,194.228 L198.396,197.78 L194.291,199.499 C189.134,201.659 185.112,204.709 182.542,208.18 C180.524,210.908 179.418,213.883 179.402,216.843 C179.386,219.78 180.442,222.791 182.743,225.633 L183.691,226.719 C184.912,224.587 186.616,222.881 188.835,221.821 C188.988,221.749 189.144,221.678 189.301,221.612 C179.958,212.977 196.774,201.926 210.75,200.427" id="Fill-45" fill="#FFFFFF"></path>
        <g id="Group-49" transform="translate(254.000000, 0.000000)">
            <mask id="mask-2" fill="white">
                <use xlink:href="#path-1"></use>
            </mask>
            <g id="Clip-47"></g>
            <path d="M31.767,4.116 C13.722,6.941 1.383,23.86 4.207,41.906 C7.03,59.949 23.951,72.29 41.993,69.467 C60.038,66.641 72.38,49.722 69.555,31.678 C66.73,13.633 49.812,1.293 31.767,4.116" id="Fill-46" fill="#6DE1FF" mask="url(#mask-2)"></path>
            <path d="M7.37,15.271 C12.879,7.715 21.271,2.262 31.239,0.702 C41.196,-0.857 50.851,1.771 58.402,7.28 C65.956,12.79 71.413,21.181 72.971,31.149 L73.024,31.51 C74.463,41.339 71.836,50.852 66.391,58.313 C60.883,65.867 52.491,71.322 42.526,72.881 L42.161,72.936 C32.332,74.375 22.821,71.744 15.359,66.303 C7.806,60.794 2.351,52.401 0.792,42.434 L0.737,42.073 C-0.704,32.243 1.927,22.732 7.37,15.271 Z M32.297,7.532 C24.217,8.797 17.417,13.215 12.952,19.336 C8.487,25.46 6.357,33.291 7.622,41.376 L7.627,41.41 C8.897,49.471 13.313,56.26 19.425,60.72 C25.549,65.185 33.379,67.315 41.466,66.049 L41.528,66.041 C49.577,64.764 56.357,60.351 60.809,54.246 C65.276,48.122 67.404,40.292 66.139,32.208 L66.135,32.177 C64.864,24.112 60.45,17.323 54.334,12.862 C48.214,8.398 40.38,6.267 32.297,7.532 L32.297,7.532 Z" id="Fill-48" fill="#1B1038" mask="url(#mask-2)"></path>
        </g>
        <path d="M316.596,29.037 C319.188,45.603 307.858,61.138 291.291,63.731 C285.583,64.622 279.999,63.864 275.023,61.806 C280.882,65.523 288.068,67.208 295.466,66.049 L295.528,66.041 C303.577,64.764 310.357,60.351 314.809,54.246 C319.276,48.122 321.404,40.292 320.139,32.208 L320.135,32.177 C318.941,24.588 314.959,18.127 309.397,13.676 C313.088,17.862 315.668,23.116 316.596,29.037" id="Fill-50" fill="#FFFFFF"></path>
        <polygon id="Fill-51" fill="#1B1038" points="287.411 87.537 294.351 87.537 294.351 70.51 287.411 70.51"></polygon>
        <path d="M337.501,196.206 C329.267,196.206 321.813,199.544 316.418,204.94 C311.022,210.333 307.684,217.786 307.684,226.02 C307.684,234.253 311.022,241.708 316.418,247.102 C321.813,252.497 329.267,255.835 337.501,255.835 C345.735,255.835 353.189,252.498 358.583,247.102 C363.977,241.708 367.314,234.253 367.314,226.02 C367.314,217.786 363.977,210.333 358.583,204.94 C353.189,199.544 345.735,196.206 337.501,196.206" id="Fill-52" fill="#6DE1FF"></path>
        <path d="M360.007,227.055 C361.332,228.43 361.288,230.623 359.91,231.947 C358.533,233.271 356.343,233.229 355.019,231.852 C352.765,229.516 350.042,227.627 347.005,226.337 C344.101,225.104 340.888,224.42 337.501,224.42 C334.111,224.42 330.898,225.104 327.993,226.337 C324.956,227.627 322.237,229.516 319.983,231.852 C318.659,233.229 316.465,233.271 315.088,231.947 C313.711,230.623 313.67,228.43 314.995,227.055 C317.893,224.049 321.386,221.622 325.283,219.968 C329.049,218.366 333.181,217.481 337.501,217.481 C341.818,217.481 345.95,218.366 349.716,219.968 C353.613,221.621 357.105,224.049 360.007,227.055" id="Fill-53" fill="#1B1038"></path>
        <path d="M363.166,219.103 C364.257,217.536 363.869,215.379 362.302,214.289 C360.734,213.197 358.578,213.586 357.488,215.154 C356.458,216.623 355.205,217.944 353.771,219.056 C352.365,220.148 350.791,221.037 349.093,221.671 C348.873,221.754 348.666,221.855 348.474,221.976 L354.333,226.883 C355.64,226.198 356.873,225.407 358.018,224.52 C360.001,222.982 361.735,221.15 363.166,219.103" id="Fill-54" fill="#1B1038"></path>
        <path d="M352.771,212.435 C353.421,210.64 352.494,208.655 350.699,208.003 C348.904,207.353 346.917,208.28 346.267,210.075 C345.652,211.761 344.781,213.359 343.681,214.801 C342.601,216.218 341.306,217.482 339.829,218.531 C339.637,218.666 339.464,218.818 339.31,218.983 L346.232,222.221 C347.321,221.224 348.306,220.142 349.183,218.991 C350.708,216.995 351.915,214.779 352.771,212.435" id="Fill-55" fill="#1B1038"></path>
        <path d="M244.261,196.206 C252.493,196.206 259.949,199.544 265.344,204.94 C270.738,210.333 274.077,217.786 274.077,226.02 C274.077,234.253 270.738,241.708 265.344,247.102 C259.949,252.497 252.493,255.835 244.261,255.835 C236.028,255.835 228.574,252.498 223.18,247.102 C217.785,241.708 214.446,234.253 214.446,226.02 C214.446,217.786 217.785,210.333 223.18,204.94 C228.574,199.544 236.028,196.206 244.261,196.206" id="Fill-56" fill="#6DE1FF"></path>
        <path d="M221.756,227.055 C220.432,228.43 220.474,230.623 221.85,231.947 C223.227,233.271 225.418,233.229 226.744,231.852 C228.998,229.516 231.718,227.627 234.754,226.337 C237.662,225.104 240.872,224.42 244.262,224.42 C247.651,224.42 250.863,225.104 253.769,226.337 C256.804,227.627 259.526,229.516 261.779,231.852 C263.103,233.229 265.294,233.271 266.671,231.947 C268.048,230.623 268.091,228.43 266.767,227.055 C263.867,224.049 260.374,221.622 256.479,219.968 C252.712,218.366 248.582,217.481 244.262,217.481 C239.942,217.481 235.812,218.366 232.043,219.968 C228.149,221.621 224.656,224.049 221.756,227.055" id="Fill-57" fill="#1B1038"></path>
        <path d="M218.595,219.103 C217.505,217.536 217.892,215.379 219.46,214.289 C221.027,213.197 223.185,213.586 224.275,215.154 C225.303,216.623 226.555,217.944 227.988,219.056 C229.396,220.148 230.971,221.037 232.669,221.671 C232.888,221.754 233.094,221.855 233.287,221.976 L227.428,226.883 C226.12,226.198 224.888,225.407 223.745,224.52 C221.762,222.982 220.025,221.15 218.595,219.103" id="Fill-58" fill="#1B1038"></path>
        <path d="M228.992,212.435 C228.34,210.64 229.267,208.655 231.063,208.003 C232.859,207.353 234.842,208.28 235.494,210.075 C236.11,211.761 236.981,213.359 238.081,214.801 C239.162,216.218 240.454,217.482 241.933,218.531 C242.124,218.666 242.296,218.818 242.452,218.983 L235.529,222.221 C234.44,221.224 233.453,220.142 232.576,218.991 C231.055,216.995 229.848,214.779 228.992,212.435" id="Fill-59" fill="#1B1038"></path>
        <g id="Group-63" transform="translate(0.000000, 222.000000)">
            <mask id="mask-4" fill="white">
                <use xlink:href="#path-3"></use>
            </mask>
            <g id="Clip-61"></g>
            <polygon id="Fill-60" fill="#1B1038" mask="url(#mask-4)" points="283.944 7.49 298.83 7.49 298.83 0.551 283.944 0.551"></polygon>
            <path d="M525.156,367.741 C521.021,367.741 517.744,370.735 517.744,374.87 C517.744,379.005 521.021,382.001 525.156,382.001 C539.416,382.001 548.398,372.018 554.671,358.044 L581.193,298.159 C581.478,297.446 581.763,296.448 581.763,295.165 C581.763,290.887 578.341,287.464 574.064,287.464 C569.787,287.464 567.646,290.46 566.935,292.311 L551.25,331.954 L535.564,292.311 C534.853,290.46 532.712,287.464 528.433,287.464 C524.158,287.464 520.736,290.887 520.736,295.165 C520.736,296.448 521.021,297.446 521.306,298.159 L543.265,348.776 C538.56,360.467 534.281,367.741 525.156,367.741 Z M495.101,286.608 C485.546,286.608 479.56,291.028 476.851,295.165 C476.851,290.887 473.427,287.464 469.148,287.464 C464.873,287.464 461.451,290.887 461.451,295.165 L461.451,347.063 C461.451,351.342 464.732,354.479 469.148,354.479 C473.572,354.479 476.851,351.342 476.851,347.063 L476.851,315.268 C476.851,306.856 480.414,300.583 491.107,300.583 C500.378,300.583 503.656,306.145 503.656,314.27 L503.656,347.063 C503.656,351.342 506.792,354.479 511.357,354.479 C515.632,354.479 519.056,351.342 519.056,347.063 L519.056,311.419 C519.056,299.014 514.492,286.608 495.101,286.608 Z M428.259,286.608 C418.705,286.608 412.718,291.028 410.007,295.165 C410.007,290.887 406.585,287.464 402.306,287.464 C398.031,287.464 394.609,290.887 394.609,295.165 L394.609,347.063 C394.609,351.342 397.886,354.479 402.306,354.479 C406.73,354.479 410.007,351.342 410.007,347.063 L410.007,315.268 C410.007,306.856 413.572,300.583 424.265,300.583 C433.536,300.583 436.814,306.145 436.814,314.27 L436.814,347.063 C436.814,351.342 439.951,354.479 444.511,354.479 C448.791,354.479 452.212,351.342 452.212,347.063 L452.212,311.419 C452.212,299.014 447.65,286.608 428.259,286.608 Z M355.57,342.358 C347.585,342.358 343.737,339.081 343.737,333.663 C343.737,328.528 347.16,325.534 353.43,325.534 L370.113,325.534 L370.113,329.528 C370.113,337.512 363.126,342.358 355.57,342.358 Z M357.138,300.298 C365.41,300.298 370.113,304.573 370.113,310.991 L370.113,313.557 L351.435,313.557 C339.031,313.557 328.336,320.403 328.336,333.663 C328.336,346.497 337.604,355.192 351.576,355.192 C360.134,355.192 366.408,353.055 370.257,346.923 C370.257,351.057 373.679,354.479 377.814,354.479 C381.949,354.479 385.371,351.057 385.371,346.923 L385.371,310.421 C385.371,295.307 374.818,286.608 357.138,286.608 C344.875,286.608 337.746,291.313 333.755,295.733 C332.472,297.161 331.901,298.87 331.901,300.438 C331.901,304.147 334.894,307.139 338.601,307.139 C340.314,307.139 341.453,306.714 342.88,305.716 C346.444,303.149 350.865,300.298 357.138,300.298 Z M312.826,256.239 C308.403,256.239 304.698,259.946 304.698,264.364 L304.698,320.829 L262.493,259.661 C261.067,257.522 258.785,256.239 255.933,256.239 C251.513,256.239 247.805,259.946 247.805,264.364 L247.805,346.352 C247.805,350.772 251.513,354.479 255.933,354.479 C260.353,354.479 264.061,350.772 264.061,346.352 L264.061,290.175 L306.122,350.917 C307.549,353.055 310.116,354.479 312.826,354.479 C317.246,354.479 320.954,350.772 320.954,346.352 L320.954,264.364 C320.954,259.946 317.246,256.239 312.826,256.239 Z M212.76,288.606 L209.48,288.606 C205.915,288.606 203.063,291.458 203.063,295.02 C203.063,298.589 205.915,301.436 209.48,301.436 L212.76,301.436 L212.76,335.091 C212.76,346.352 220.602,354.479 233.292,354.479 C237,354.479 239.994,351.487 239.994,347.78 C239.994,344.071 237,341.079 233.292,341.079 C230.725,341.079 227.874,339.225 227.874,335.944 L227.874,301.436 L234.291,301.436 C237.854,301.436 240.706,298.589 240.706,295.02 C240.706,291.458 237.854,288.606 234.291,288.606 L227.874,288.606 L227.874,276.63 C227.874,272.491 224.451,269.071 220.317,269.071 C216.181,269.071 212.76,272.491 212.76,276.63 L212.76,288.606 Z M174.577,286.608 C165.023,286.608 159.035,291.028 156.326,295.165 C156.326,290.887 152.904,287.464 148.625,287.464 C144.348,287.464 140.927,290.887 140.927,295.165 L140.927,347.063 C140.927,351.342 144.206,354.479 148.625,354.479 C153.046,354.479 156.326,351.342 156.326,347.063 L156.326,315.268 C156.326,306.856 159.891,300.583 170.584,300.583 C179.852,300.583 183.132,306.145 183.132,314.27 L183.132,347.063 C183.132,351.342 186.269,354.479 190.832,354.479 C195.109,354.479 198.531,351.342 198.531,347.063 L198.531,311.419 C198.531,299.014 193.969,286.608 174.577,286.608 Z M123.276,279.766 C129.266,279.766 132.544,276.342 132.544,270.782 C132.544,264.221 129.266,261.37 123.276,261.37 C117.432,261.37 114.15,264.221 114.15,270.782 C114.15,276.342 117.432,279.766 123.276,279.766 Z M130.977,295.165 C130.977,290.887 127.553,287.464 123.276,287.464 C118.999,287.464 115.576,290.887 115.576,295.165 L115.576,346.782 C115.576,351.057 118.999,354.479 123.276,354.479 C127.553,354.479 130.977,351.057 130.977,346.782 L130.977,295.165 Z M88.373,295.165 C88.373,290.887 84.951,287.464 80.673,287.464 C76.395,287.464 72.974,290.887 72.974,295.165 L72.974,346.782 C72.974,351.057 76.395,354.479 80.673,354.479 C84.951,354.479 88.373,351.057 88.373,346.782 L88.373,317.122 C88.373,307.569 93.934,301.296 103.772,301.296 C107.765,301.296 111.044,298.016 111.044,294.024 C111.044,290.03 107.765,286.753 103.772,286.753 C97.783,286.753 91.082,290.315 88.373,295.878 L88.373,295.165 Z M34.22,272.21 C42.917,272.21 48.336,277.196 48.336,286.608 C48.336,295.878 43.061,301.153 34.22,301.153 L16.54,301.153 L16.54,272.21 L34.22,272.21 Z M35.503,315.983 C52.471,315.983 65.447,306.286 65.447,286.608 C65.447,266.647 52.187,257.38 35.503,257.38 L8.269,257.38 C3.707,257.38 0,261.085 0,265.649 L0,346.212 C0,350.772 3.707,354.479 8.269,354.479 C12.832,354.479 16.54,350.772 16.54,346.212 L16.54,315.983 L35.503,315.983 L35.503,315.983 Z" id="Fill-62" fill="#1B1038" mask="url(#mask-4)"></path>
        </g>
        <path d="M254.61,41.13 C219.878,48.301 188.836,65.561 164.685,89.714 C132.388,122.011 112.411,166.629 112.411,215.912 C112.411,265.195 132.388,309.815 164.685,342.108 C168.411,345.835 172.299,349.397 176.341,352.782 C178.768,349.868 182.223,347.782 186.257,347.135 C188.121,343.971 190.339,340.813 192.93,337.716 C214.733,311.635 224.835,310.15 228.577,320.852 C231.367,328.837 228.289,346.319 224.285,363.846 C225.933,370.801 225.865,376.739 224.609,381.671 C232.659,384.893 240.999,387.546 249.577,389.579 C246.796,382.028 244.784,373.247 243.799,363.237 L238.677,363.237 C236.796,363.237 235.265,361.739 235.208,359.874 C234.363,351.487 234.473,342.967 235.448,334.475 C236.315,326.948 237.864,319.414 240.033,311.986 C214.721,303.522 204.096,288.1 200.475,271.401 C199.041,272 197.469,272.329 195.821,272.329 C192.493,272.329 189.465,270.977 187.264,268.789 L187.228,268.757 C185.028,266.551 183.669,263.516 183.669,260.177 C183.669,257.61 184.474,255.221 185.845,253.251 C185.128,252.086 184.491,250.847 183.937,249.564 C181.816,244.647 180.925,238.979 181.455,234.084 C179.874,232.774 178.519,231.407 177.377,229.998 C174.011,225.841 172.464,221.317 172.491,216.814 C172.514,212.338 174.096,207.962 176.984,204.06 C179.569,200.569 183.216,197.445 187.726,194.98 C160.905,157.064 168.87,128.712 193.739,110.037 C215.773,93.494 251.431,84.963 287.412,84.448 L287.412,73.162 C280.786,72.535 274.573,70.105 269.359,66.303 C261.807,60.793 256.351,52.401 254.792,42.434 L254.737,42.075 C254.691,41.758 254.648,41.445 254.61,41.13" id="Fill-64" fill="#FF917D"></path>
        <path d="M388.023,110.037 C412.892,128.712 420.858,157.061 394.038,194.979 C398.546,197.445 402.192,200.567 404.776,204.06 C407.666,207.962 409.249,212.338 409.273,216.814 C409.296,221.317 407.751,225.84 404.384,229.998 C403.243,231.407 401.888,232.774 400.308,234.082 C400.838,238.977 399.947,244.647 397.825,249.564 C397.271,250.844 396.636,252.079 395.921,253.244 C397.289,255.21 398.093,257.599 398.093,260.177 C398.093,263.532 396.73,266.571 394.532,268.77 L394.308,268.976 C392.122,271.054 389.176,272.329 385.939,272.329 C384.294,272.329 382.722,272 381.287,271.401 C377.573,288.522 366.501,304.3 339.785,312.616 C341.857,319.838 343.345,327.159 344.184,334.475 C345.169,343.05 345.276,351.655 344.402,360.122 C344.216,361.901 342.712,363.231 340.958,363.237 L335.835,363.237 C334.826,373.481 332.746,382.442 329.859,390.112 C338.572,388.173 347.047,385.591 355.231,382.428 C353.781,377.35 353.619,371.163 355.349,363.846 C351.347,346.319 348.269,328.837 351.058,320.852 C354.798,310.15 364.898,311.635 386.705,337.716 C389.294,340.813 391.513,343.971 393.378,347.135 C397.787,347.844 401.498,350.266 403.943,353.612 C404.001,353.694 404.06,353.776 404.12,353.862 C408.63,350.157 412.954,346.235 417.08,342.108 C449.373,309.815 469.351,265.195 469.351,215.912 C469.351,166.628 449.373,122.009 417.08,89.714 C392.928,65.564 361.888,48.302 327.161,41.131 C326.407,47.428 324.026,53.328 320.391,58.313 C314.883,65.866 306.491,71.322 296.523,72.881 L296.161,72.936 C295.555,73.024 294.951,73.098 294.351,73.156 L294.351,84.448 C330.333,84.963 365.99,93.494 388.023,110.037 Z" id="Fill-65" fill="#FF917D"></path>
    </g>
</svg>